<?xml version="1.0" encoding="utf-8"?>
<!-- Generator: Adobe Illustrator 21.1.0, SVG Export Plug-In . SVG Version: 6.00 Build 0)  -->
<svg version="1.1" id="Layer_1" xmlns="http://www.w3.org/2000/svg" xmlns:xlink="http://www.w3.org/1999/xlink" x="0px" y="0px"
	 viewBox="0 0 366.1 366.1" style="enable-background:new 0 0 366.1 366.1;" xml:space="preserve">
<style type="text/css">
	.st0{opacity:0.63;fill:#545454;}
	.st1{fill:#FFC648;}
</style>
<g>
	<polygon class="st0" points="5.7,183 183,360.4 183,5.7 	"/>
	<polygon class="st0" points="183,5.7 183,360.4 360.4,183 	"/>
	<polygon class="st1" points="183,5.7 183,360.4 360.4,183 	"/>
	<polygon points="3,183 183,3 183,0 0,183 183,366.1 183,363 	"/>
	<polygon points="183,0 183,3 363,183 183,363 183,366.1 366.1,183 	"/>
	<polygon points="360.4,183 183,360.4 183,363 363,183 183,3 183,5.7 	"/>
	<polygon points="183,363 183,360.4 5.7,183 183,5.7 183,3 3,183 	"/>
</g>
<circle cx="265.5" cy="182.6" r="40.5"/>
</svg>
