<?xml version="1.0" encoding="utf-8"?>
<!-- Generator: Adobe Illustrator 21.1.0, SVG Export Plug-In . SVG Version: 6.00 Build 0)  -->
<svg version="1.1" id="Layer_1" xmlns="http://www.w3.org/2000/svg" xmlns:xlink="http://www.w3.org/1999/xlink" x="0px" y="0px"
	 viewBox="0 0 963.8 1073.2" style="enable-background:new 0 0 963.8 1073.2;" xml:space="preserve">
<style type="text/css">
	.st0{opacity:1;fill:#067A1F;}
	.st1{opacity:1;}
	.st2{fill:#986D46;}
	.st3{fill:#DAA46C;}
	.st4{fill:#FDC487;}
	.st5{fill:#E9400A;}
	.st6{fill:#B35235;}
	.st7{fill:#9C2602;}
	.st8{fill:#CBBE5B;}
	.st9{fill:#EBAB4E;}
	.st10{fill:#581802;}
	.st11{fill:#052402;}
	.st12{fill:#B1A048;}
	.st13{fill:#787442;}
</style>
<rect x="189.9" y="-27.7" transform="matrix(0.9411 0.3381 -0.3381 0.9411 193.5838 -38.1021)" class="st0" width="32.6" height="1128.6"/>
<g class="st1">
	<path class="st2" d="M657.2,345c1,0.5,2.1,1,3.4,1.7c-0.2,1.8-0.4,3.8-0.6,5.7c-2.8,0-5.6,0-8.8,0c-0.4,2.8-1,5.3-1,7.7
		c-0.1,10.9-0.2,21.9-0.1,32.8c0.1,8.6,0.4,17.3,1,25.9c0.8,11.2,1.7,22.5,3,33.6c1.5,13.3,3,26.7,5.3,39.8
		c2.9,16.1,6.5,32.1,10.3,48c7.3,31,16.4,61.5,27.7,91.3c6.8,18,14.2,35.8,22.2,53.3c6.1,13.2,13.4,25.9,20.6,38.6
		c6.2,10.8,12.6,21.5,19.6,31.8c9.5,13.8,19.2,27.5,29.6,40.6c12.8,16.1,26.4,31.6,39.8,47.2c5.4,6.3,11.2,12.3,16.9,18.4
		c0,0.3,0,0.5,0,0.8c-1.8,2.4-3.6,4.8-5.4,7.2c-0.3,0-0.6-0.1-0.9-0.1c-11.7-13.2-23.5-26.1-34.9-39.5
		c-11.4-13.5-22.5-27.3-33.2-41.3c-7.7-10.1-15-20.7-21.9-31.4c-9.2-14.5-18-29.3-26.6-44.2c-3.3-5.7-5.8-11.8-8.7-17.8
		c-4.3-8.7-9.1-17.2-12.8-26.2c-6.5-16-12.8-32-18.2-48.4c-7.4-22.5-14.2-45.2-20.6-68c-6.3-22.3-11-45-14.2-68
		c-2.3-16.5-4.9-33.1-6.7-49.7c-1.3-12-1.7-24.2-2.1-36.2c-0.3-10.8-0.1-21.7,0.1-32.5c0.1-3.7,0.7-7.5,1.1-11.6
		c-4.5-0.8-8.3-2-12.1-2.2c-11.6-0.5-23.2-0.6-34.9-1c-10.4-0.3-21.1,1-31.2-2.9c-0.7-0.3-1.9-0.2-2.4,0.3c-3.4,3-7.3,1.4-10.9,1.2
		c-7.3-0.3-14.5-1.1-21.8-1.6c-12.1-1-24.2-1.7-36.2-3.1c-15.8-1.7-31.6-3.7-47.4-6c-24.5-3.6-48.4-10-72-17.3
		c-7.4-2.3-14.9-4.6-22.3-6.8c-0.1-0.3-0.1-0.6-0.1-0.9c1.3-2.3,2.7-4.7,4-7c0.7,0.1,1.4,0,2,0.3c32.1,10.9,64.6,20,98.1,25
		c18.4,2.7,36.8,4.8,55.3,6.6c15,1.5,30.1,2.3,45.2,3c17.1,0.8,34.2,1.2,51.3,1.8c1.4,0.4,2.9,1.3,4.3,1.3
		c7.9-0.2,15.8-0.7,23.7-1.1c7.3,0,14.6,0.1,21.9,0.1l0,0C656.5,344.4,656.8,344.7,657.2,345z"/>
	<path class="st3" d="M846.3,861.2c-5.6-6.1-11.4-12.1-16.9-18.4c-13.4-15.6-27-31.1-39.8-47.2c-10.4-13.1-20.2-26.8-29.6-40.6
		c-7-10.3-13.5-21-19.6-31.8c-7.2-12.7-14.5-25.4-20.6-38.6c-8-17.5-15.4-35.3-22.2-53.3c-11.3-29.8-20.4-60.3-27.7-91.3
		c-3.8-15.9-7.4-31.9-10.3-48c-2.4-13.2-3.8-26.5-5.3-39.8c-1.3-11.2-2.2-22.4-3-33.6c-0.6-8.6-0.9-17.3-1-25.9
		c-0.2-10.9-0.1-21.9,0.1-32.8c0-2.4,0.6-4.8,1-7.7c3.2,0,6,0,8.8,0c-0.3,17.1-1,34.2-0.8,51.3c0.2,11.7,1.6,23.4,2.7,35.1
		c0.9,9,1.9,18.1,3.2,27.1c1.9,12.9,3.7,25.8,6.2,38.5c2.8,14.4,6.1,28.6,9.7,42.8c4.2,15.9,8.9,31.7,13.6,47.5
		c7.2,23.9,15.7,47.3,25.8,70c7.2,16.3,15.5,32.2,24.3,47.7c9,15.8,18.6,31.3,29.1,46.2c12.2,17.3,25.2,34.1,38.6,50.4
		c13,15.9,27.1,30.9,40.7,46.2C850.9,857.2,848.6,859.2,846.3,861.2z"/>
	<path class="st4" d="M142.3,764.2c0.4-1.8,0.5-3.6,1.1-5.3c8.6-24.6,17.2-49.2,25.9-73.7c6.2-17.6,12.5-35.1,18.8-52.6
		c2.7-7.5,5.8-14.9,8.5-22.4c1.3-3.5,2.9-6.7,3.2-10.6c0.2-2.7,1.8-5.5,3.6-7.6c1-1.3-0.6-3.5,1.8-3.8c-1.3-4.6,1.7-8.5,3.5-11.9
		c2-3.7,2-7.5,3.3-11.1c4-11.3,8.2-22.5,12.3-33.8c1.8-5,3.8-9.9,5.5-14.9c3.6-10.5,6.9-21,10.6-31.4c2.5-7.3,5.5-14.4,7.9-21.7
		c0.9-2.6,1.1-5.1,3.9-6.6c2.3-1.3-0.1-3.4,0.4-5.4c1.4-5.5,3.8-10.4,5.7-15.5c0.9-2.5,4.8-4.8,2.4-8.5c-0.3-0.5,0.3-1.9,0.8-2.8
		c3.2-6,4.3-12.8,6.8-19.1c2-4.9,2.6-10.6,5.5-14.8c3.4-4.8,3.2-10.2,5.1-15.1c3.5-9.3,6.9-18.6,10.3-28c1.5-4,2.8-8.1,4.2-12.1
		c2.4,1,4.8,1.9,7.2,2.9c-0.5,1.9-0.7,3.9-1.4,5.8c-10.9,30.8-21.9,61.5-32.7,92.3c-14.3,40.7-28.5,81.4-42.8,122.1
		c-10.5,29.9-21,59.8-31.5,89.7c-0.8-0.5-1.7-0.9-2.7-1.5c-3.6,10.7-7.1,21.2-10.7,31.6c-6.2,17.5-12.4,35-18.7,52.4
		c-4.2,11.7-8.5,23.3-12.8,34.9C145.5,765.1,143.9,764.7,142.3,764.2z"/>
	<path class="st4" d="M817.3,935.9c-16,0.1-32,0-47.9,0.3c-11.1,0.3-22.1,1.2-33.2,1.9c-5.9,0.3-11.9,0.8-17.8,1.1
		c-7.1,0.4-14.2,0.5-21.3,1c-9.2,0.8-18.3,1.9-27.5,2.9c-4.4,0.4-8.9,0.8-13.3,1.1c-12.7,1-25.3,1.9-38,3c-10.7,0.9-21.3,1.9-32,3
		c-7.5,0.8-14.9,3.1-22.6,1.4c-9.5,3.3-19.6,1.2-29.2,3.5c-0.3,0.1-0.7,0-1,0.1c-9.3,0.3-18.5,0.7-27.8,1
		c-9.4,0.4-18.8,0.8-28.2,1.1c-1.8,0.1-3.7-0.1-5.5-0.2c-1.4-0.2-2.9-0.9-4.2-0.7c-8.8,1.2-15.5-3.7-22.7-7.2
		c-0.4-0.2-0.6-1.1-0.8-1.7c5.3,0.3,10.5,0.8,15.8,0.7c8.8-0.1,17.6-0.6,26.4-0.9c9.8-0.3,19.5-0.5,29.3-1c14.2-0.8,28.5-1.8,42.7-3
		c19-1.5,38-3.3,57-5c14.4-1.3,28.7-2.7,43-4c15.4-1.4,30.7-2.8,46.1-3.9c15.5-1.2,31.1-2.3,46.7-3c15.6-0.7,31.1-0.8,46.7-1.1
		c6.4-0.1,12.9-0.1,19.3-0.1c0,0,0.2,0.1,0.2,0.1C817.3,929.4,817.3,932.7,817.3,935.9z"/>
	<path class="st5" d="M372.2,108.4C383.8,75.2,395.4,42,407.4,7.7c3.3,10.6,5.9,20.1,9.1,29.3c8.4,23.7,17.1,47.3,25.6,71
		c0.4,1.1,0.8,2.2,1.1,3.3c-2.4,1.3-4.9,2.5-7.3,3.8c-3.3,0.7-6.5,1.5-9.8,2.2c-1.7,0-3.3,0-5,0.1c-5.7,0.2-11.5,0.9-17.2,0.6
		c-4.7-0.3-9.2-1.7-13.9-2.7c0.5-2.3,0.7-4.6,1.4-6.7c1.4-4.2,3.1-8.4,4.5-12.6c2.1-5.9,3.8-11.9,6.2-17.7c2.4-6.1,4.3-12.1,4-18.7
		c-0.1-2.8,0.6-5.6,0.7-8.4c0.1-3.2,0-6.3,0-9.5c-0.6-0.1-1.1-0.2-1.7-0.3c-1,2.3-2.2,4.6-3,6.9c-2.2,6.4-4.1,12.9-6.3,19.3
		c-5.2,15.2-10.5,30.3-15.7,45.5c-0.2,0-0.4,0.1-0.6,0.2C377.2,111.5,374.7,109.9,372.2,108.4z M398.1,97.1L398.1,97.1
		c-2.9,3.7-2.9,7.4,0.1,11.1c0.3,0.3,0.6,0.6,0.9,1c0.4,0.3,0.7,0.7,1.1,1l0,0c3,3.8,6.9,3.6,10.7,1.9c3.8-1.7,6.4-4.7,6.4-9.2
		c0-4.1-1.4-7.6-5.2-9.4c-3.6-1.8-7.4-2.8-10.9,0.6c0,0,0,0,0,0C400.1,95.1,399.1,96.1,398.1,97.1z"/>
	<path class="st4" d="M436,115c2.4-1.3,4.9-2.5,7.3-3.8c9.4,20,18.6,40.2,28.4,60c9.5,19.1,21.1,37,34,54
		c12.4,16.3,26.7,31,41.8,44.6c13.5,12.2,28.3,23.2,42.9,34.2c16.4,12.3,33.9,23,51.9,32.8c2.9,1.6,6.2,2.4,9.2,3.8
		c1.7,0.8,3.1,2.3,4.6,3.5c-7.3,0-14.6-0.1-21.9-0.1c-0.2-0.4-0.3-1.1-0.6-1.3c-10.1-6-20.4-11.5-30.1-18
		c-12.2-8.1-24.2-16.7-35.9-25.7c-14.9-11.4-28.6-24.1-41.8-37.5c-11.2-11.3-21.9-23.1-31.3-36c-11.6-15.9-22.3-32.4-30.9-50.2
		c-7.9-16.4-16-32.7-23.9-49.1C438,122.6,437.2,118.7,436,115z"/>
	<path class="st5" d="M817.3,935.9c0-3.2,0-6.4,0-9.6c3.8,0.3,7.6,0.6,11.4,0.9c15.3,1,30.7,1.9,46,3.1c7.1,0.6,14.1,1.7,21.1,2.7
		c3.8,0.6,7.6,1.5,11.5,2.2c3.2,0.6,6.5,1,9.7,1.5c3.3,0.4,6.6,0.8,9.8,1.2c-0.6-1.9-1.5-3.1-2.6-4c-12.6-11-25.5-21.7-37.7-33
		c-12.7-11.7-24.8-24-37.2-36.1c-1-0.9-2-1.8-3-2.7c0-0.3,0-0.5,0-0.8c2.3-2,4.6-4,6.9-6c8.7,8.6,17.4,17.4,26.2,25.9
		c24.6,23.8,50.3,46.3,77.5,67.2c1.5,1.1,2.9,2.2,4.3,3.4c0.8,0.7,1.3,1.7,2.5,3.4c-1.6,0.3-2.8,0.9-3.7,0.7
		c-14-3.3-27.8-7-41.9-9.8c-12.7-2.5-25.5-4.6-38.3-5.7C859,938.3,838.2,937.3,817.3,935.9z"/>
	<path class="st3" d="M444.2,947.4c0.3,0.6,0.4,1.4,0.8,1.7c7.2,3.5,13.9,8.5,22.7,7.2c1.4-0.2,2.8,0.4,4.2,0.7
		c-15-0.3-30,0.2-44.8-1.1c-26.1-2.2-52-6.5-77.6-12.4c-28.8-6.6-57.1-14.9-84.9-24.8c-21.9-7.8-43.4-16.9-65-25.5
		c-1.3-0.5-2.4-1.6-3.6-2.4c1-2.5,2.1-5,3.1-7.5c0.8,0.2,1.6,0.3,2.3,0.6c14.9,6,29.6,12.7,44.7,18.1c22.8,8.1,45.7,15.7,68.8,23
		c26.4,8.3,53.4,14.1,80.8,18.1C411.8,945.5,427.9,947.6,444.2,947.4z"/>
	<path class="st5" d="M199.2,883.4c-1,2.5-2.1,5-3.1,7.5c-3.8-1.5-7.8-2.6-11.4-4.4c-22.2-10.8-44.4-21.7-66.5-32.7
		c-5.6-2.8-6.2-4.6-4.1-10.7c5.5-15.8,11-31.5,16.6-47.3c3.5-9.8,6.9-19.6,10.4-29.4c0.3-0.7,0.8-1.4,1.2-2.1
		c1.6,0.5,3.2,0.9,4.8,1.4c1,0.3,2,0.5,3,0.8c0,0.3,0,0.6,0,0.9c-3.3,9.5-6.6,19.1-9.9,28.6c-5.4,15.5-10.7,30.9-16.3,46.3
		c-1.2,3.2-0.2,4.5,2.5,5.8c6.6,3.2,13,6.6,19.6,9.7c17.7,8.3,35.4,16.6,53.1,24.8C199.1,882.8,199.1,883.1,199.2,883.4z"/>
	<path class="st4" d="M372.2,108.4c2.5,1.6,5,3.2,7.5,4.7c-0.6,2.2-1.2,4.5-1.9,6.7c-5.3,15.2-10.7,30.3-16.1,45.5
		c-9.5,27.3-19,54.5-28.6,81.8c-0.3,0.1-0.7,0.2-1,0.2c-2.3-1.1-4.6-2.3-6.9-3.4c1.4-4.9,2.6-9.8,4.1-14.7
		c1.8-5.6,3.9-11.2,5.9-16.8c4-10.8,8.1-21.5,12.1-32.3c1.8-5,3.4-10.2,5.2-15.3c1.6-4.7,2.8-9.7,5.1-14c1.3-2.4,0.2-5.1,2.1-7.1
		c1.6-1.7,1.6-3.9,1.9-6.1c0.4-2.8,2.2-5.3,3.3-8c0.5-1.3,0.4-3.2,1.2-4c2.9-2.9,0.3-7.9,4.6-10.4
		C372.2,114.5,371.8,110.7,372.2,108.4z"/>
	<path class="st5" d="M325.2,243.9c2.3,1.1,4.6,2.3,6.9,3.4c-0.3,1.8-0.4,3.6-1,5.3c-2.8,8.3-5.6,16.6-8.7,24.8
		c-1.9,5-2.7,10.8-8,13.8c-2.2-0.8-4.4-1.5-6.6-2.3c5.2-13.8,10.3-27.6,15.5-41.4C323.8,246.3,324.6,245.1,325.2,243.9z"/>
	<path class="st5" d="M300.4,338.2c-2.4-1-4.8-1.9-7.2-2.9c4.4-12.3,8.9-24.6,13.3-36.9c0.7-0.1,1.4-0.2,2.1-0.3
		c5.4,2.8,5.6,3.5,3.4,9.7c-3.6,10.1-7.1,20.2-10.6,30.3C301,338.1,300.7,338.2,300.4,338.2z"/>
	<path class="st6" d="M308.5,298.1c-0.7,0.1-1.4,0.2-2.1,0.3c0.4-3.1,0.9-6.3,1.3-9.4c2.2,0.8,4.4,1.5,6.6,2.3
		c-0.1,0.4-0.1,0.7-0.2,1.1c-0.1,0.9-0.2,1.9-0.3,2.8C312.2,296.1,310.3,297.1,308.5,298.1z"/>
	<path class="st4" d="M657.2,345c-0.3-0.3-0.7-0.5-1-0.8C656.5,344.4,656.8,344.7,657.2,345z"/>
	<path class="st3" d="M528.1,348.3c7.3,0.6,14.5,1.3,21.8,1.6c3.6,0.2,7.5,1.7,10.9-1.2c0.5-0.4,1.7-0.5,2.4-0.3
		c10.1,4,20.7,2.6,31.2,2.9c11.6,0.4,23.2,0.5,34.9,1c3.9,0.2,7.7,1.4,12.1,2.2c-0.4,4.1-1,7.8-1.1,11.6
		c-0.2,10.8-0.4,21.7-0.1,32.5c0.4,12.1,0.8,24.2,2.1,36.2c1.8,16.6,4.4,33.1,6.7,49.7c3.2,23,7.9,45.7,14.2,68
		c6.4,22.8,13.2,45.5,20.6,68c5.4,16.4,11.7,32.4,18.2,48.4c3.7,9,8.5,17.5,12.8,26.2c2.9,5.9,5.4,12.1,8.7,17.8
		c8.7,14.8,17.4,29.7,26.6,44.2c6.8,10.8,14.1,21.3,21.9,31.4c10.7,14,21.8,27.8,33.2,41.3c11.3,13.4,23.2,26.4,34.9,39.5
		c-5,8.3-10,16.7-15,25c-5.8-2.1-11.5-4.2-17.4-6.1c-12.7-4.2-25.3-8.7-38.1-12.5c-11.7-3.5-23.6-6.2-35.3-9.4
		c-1.2-0.3-2.5-0.9-3.4-1.8c-2-1.8-3.7-3.8-6.8-1.5c-0.9,0.6-2.9,0-4.3-0.4c-14.1-3.4-28.2-6.8-42.3-10.5
		c-17.4-4.6-34.7-9.4-52.1-14.2c-7.6-2.1-15.2-4.4-22.8-6.7c-13.3-4.1-26.6-8-39.7-12.6c-17.6-6.2-35.2-12.7-52.6-19.4
		c-13-5-25.8-10.4-38.5-16.1c-9.1-4-17.7-9-26.7-13.2c-5.3-2.5-10.1-7.1-16.8-5.6c-0.4-0.8-0.8-1.5-1.3-2.3
		c-0.9-1.1-1.6-2.4-2.8-3.1c-2.4-1.6-5-3-7.6-4.5c-6.7-3.8-13.4-7.7-20.1-11.5c1.5-0.6,3.1-1.1,4.6-1.7c21.8-8,31.7-26.7,23.6-48.4
		c-2.2-5.7-5.7-11-9.1-16.2c-1.7-2.6-4.4-4.4-6.6-6.6c0.2,1.9,1,3.1,1.8,4.3c6.9,11.4,5.4,24.2-4.2,34.3c-8,8.4-20.1,11.6-32.4,4.5
		c-17.4-10.1-29.6-30.2-23.1-52.4c4.7-16.1,13.7-29.1,30-35.8c8.8-3.6,18-4.8,27.3-4.7c13.3,0.2,26.6,1.4,39.9,1.6
		c19.1,0.3,38.3,1.3,57.3-1.8c17.6-2.8,34.2-8.4,49-18.4c20-13.6,34.7-31.8,45.9-53c9.1-17.2,12.2-35.6,8.6-54.9
		c-4.3-22.6-16-40.9-32.1-56.8c-2.8-2.7-6.2-4.7-10-7.5c0.2,1.7,0,2.8,0.4,3.5c3.3,5.4,4,11.5,4.5,17.5c1,12.6-0.9,24.9-5,36.8
		c-8.3,24.1-23.2,41.6-48.6,48.6c-12.3,3.4-24.9,3.6-37.6,3.4c-13.3-0.2-26.6-0.5-39.9-0.3c-15.5,0.2-30.8,2.4-45.8,6.3
		c-39.4,10.2-68.7,33.1-86.9,69.7c-4.5,9-7.1,18.5-9.3,28.2c-1.1-0.9-2.5-1.6-3.1-2.7c-2.9-5.7-5.9-11.5-8.2-17.5
		c-2.5-6.7-4.3-13.8-6.4-20.6c-0.6-1.8-1.3-3.5-2-5.2c5.2-15.1,14.5-27.8,23.7-40.8c-9.2,1.7-16.9,6.6-24.7,10.9
		c0.3-4.9,0.1-10,1.1-14.8c3.2-14.9,7.2-29.5,14.2-43.2c5.8-11.4,11.7-22.7,19.8-32.7c7.3-9.2,14.7-18.4,22.3-27.2
		c5.5-6.4,11.2-12.6,17.4-18.3c8.9-8.2,18.3-15.8,27.4-23.7c10.7-9.1,21.5-18.1,33.7-25.2c17-9.9,35-17.1,54-22.1
		c15.5-4.1,31.1-7.6,47.1-9C519.6,350.7,523.8,349.2,528.1,348.3z M444,394.4c-26.7,18.4-36,57.7-15.5,88.1
		c21.2,31.5,64.2,38.3,94.4,14.9c27.9-21.6,30.7-59.4,17.4-80.3c-1.9,38-34.6,55.8-60.7,50c-14-3.1-25-10.5-32.6-22.7
		C436.9,428.4,437.2,411.7,444,394.4z"/>
	<path class="st4" d="M428.4,764.2c6.7-1.5,11.4,3.2,16.8,5.6c9,4.1,17.7,9.1,26.7,13.2c12.7,5.7,25.5,11.1,38.5,16.1
		c17.4,6.7,34.9,13.3,52.6,19.4c13.1,4.6,26.5,8.5,39.7,12.6c7.6,2.3,15.2,4.6,22.8,6.7c17.3,4.8,34.7,9.7,52.1,14.2
		c14,3.7,28.2,7,42.3,10.5c1.4,0.3,3.4,1,4.3,0.4c3.1-2.3,4.8-0.3,6.8,1.5c0.9,0.8,2.2,1.4,3.4,1.8c11.8,3.2,23.7,5.9,35.3,9.4
		c12.8,3.8,25.4,8.2,38.1,12.5c5.8,1.9,11.6,4.1,17.4,6.1c-2,7.6-4,15.3-6,22.9c-0.3,0.2-0.6,0.4-0.9,0.6c-1.8-0.2-3.6-0.5-5.4-0.4
		c-15.8,0.3-31.6,0.6-47.4,1c-8.1,0.2-16.3,0.5-24.4,0.9c-17.6,1-35.1,2.1-52.7,3.2c-5.1,0.3-10.3,0.8-15.4,1.3
		c-12.7,1.2-25.4,2.4-38.1,3.6c-8.8,0.8-17.5,1.5-26.3,2.3c-12.7,1.2-25.4,2.6-38.1,3.7c-10.1,0.9-20.2,1.5-30.3,2.2
		c-13.2,0.9-26.5,2.2-39.7,2.7c-13.9,0.5-27.8,0.5-41.7,0.1c-13.8-0.4-27.5-1.6-41.3-2.4c-5.2-4.1-10.5-8.1-15.7-12.2
		c-4.4,1.1-6.4-2.9-9.3-4.7c-7.6-4.7-14.9-9.9-22-15.3c-7.7-5.8-15.1-11.9-22.4-18.2c-10.2-8.9-20.7-17.7-30.1-27.5
		c-11.6-12.1-23.5-24.1-32.6-38.5c-1.2-1.9-3.7-3-5.2-4.8c-2.7-3.1-5.2-6.4-7.6-9.8c-7.2-10.3-14.5-20.5-21.3-31
		c-5.8-9-11-18.5-16.5-27.7c-11.4-19.1-20.8-39.2-29.5-59.7c-2.9-6.8-5.9-13.6-8.9-20.4c0.4-1.9,0.7-3.9,1.4-5.8
		c7.2-20.3,14.4-40.6,21.6-61c8.1-23,16.1-46,24.2-69c11.4-32.4,22.8-64.8,34.1-97.2c8.4-23.8,16.7-47.5,25-71.3
		c2.7-7.8,5.2-15.7,7.8-23.6c0.3-0.1,0.6-0.2,0.8-0.3c2.3-0.1,4.6,0,6.8-0.4c14.1-2.7,24.5-10.8,32.2-22.6
		c7.4,2.3,14.9,4.6,22.3,6.8c23.6,7.2,47.5,13.7,72,17.3c15.7,2.3,31.5,4.3,47.4,6c12,1.3,24.1,2.1,36.2,3.1
		c-4.3,1-8.5,2.4-12.8,2.8c-16,1.4-31.6,4.9-47.1,9c-19,5-37,12.2-54,22.1c-12.2,7.1-23,16-33.7,25.2c-9.2,7.9-18.5,15.5-27.4,23.7
		c-6.2,5.7-11.9,11.9-17.4,18.3c-7.7,8.9-15,18.1-22.3,27.2c-8,10-14,21.3-19.8,32.7c-6.9,13.7-11,28.4-14.2,43.2
		c-1,4.8-0.8,9.9-1.1,14.8c-0.4,0.3-0.7,0.7-1.1,1c-31.8,21.8-50.5,51.6-55.2,90c-2.8,23.2,0.7,45.4,10.7,66.4
		c13.9,29.2,35.5,50.5,65.7,63c14,5.8,28.5,8.8,43.5,9.2c15.4,0.4,30.5-1.8,45-7.1C402.5,784.1,417.2,776.9,428.4,764.2z"/>
	<path class="st4" d="M390.1,115.2c4.6,0.9,9.2,2.4,13.9,2.7c5.7,0.3,11.5-0.4,17.2-0.6c1.7-0.1,3.3-0.1,5-0.1
		c0.6,1.9,1.1,3.8,1.9,5.6c4.7,10.4,9.2,20.9,14.2,31.1c5.3,10.9,10.6,21.8,16.5,32.4c6.1,10.8,12.4,21.5,19.4,31.7
		c8.1,11.8,16.7,23.4,26,34.4c7.5,8.8,16.1,16.7,24.5,24.7c8.4,7.9,17.1,15.6,26,23.1c14.5,12.1,29.6,23.4,45.8,33.2
		c4.8,2.9,9.3,6.1,14.4,9.4c-3.4,0.4-6.1,0.7-8.8,1c-17.1-0.6-34.2-1-51.3-1.8c-15.1-0.7-30.2-1.5-45.2-3c-18.5-1.8-37-3.9-55.3-6.6
		c-33.5-5-66.1-14.1-98.1-25c-0.6-0.2-1.3-0.2-2-0.3l-0.2-0.2c3.3-7.2,3.9-14.9,3-22.5c-1.4-12-5.8-22.8-15.9-30.4
		c-0.1-0.6-0.3-1.3-0.4-1.9c0.4-0.9,1-1.7,1.3-2.7c8.2-23.1,16.3-46.3,24.4-69.4c7.6-21.6,15.2-43.2,22.7-64.8
		C389.5,115.4,389.8,115.3,390.1,115.2z"/>
	<path class="st3" d="M606.2,343.9c2.7-0.3,5.4-0.6,8.8-1c-5.1-3.3-9.7-6.5-14.4-9.4c-16.2-9.8-31.3-21.1-45.8-33.2
		c-8.9-7.4-17.6-15.1-26-23.1c-8.5-8-17.1-15.9-24.5-24.7c-9.3-10.9-17.8-22.6-26-34.4c-7-10.2-13.4-20.9-19.4-31.7
		c-5.9-10.6-11.3-21.5-16.5-32.4c-5-10.3-9.5-20.7-14.2-31.1c-0.8-1.8-1.3-3.7-1.9-5.6c3.3-0.7,6.5-1.5,9.8-2.2
		c1.2,3.7,2.1,7.6,3.7,11.1c7.8,16.4,16,32.7,23.9,49.1c8.5,17.8,19.3,34.3,30.9,50.2c9.4,12.9,20.1,24.7,31.3,36
		c13.2,13.4,27,26.1,41.8,37.5c11.7,9,23.6,17.5,35.9,25.7c9.7,6.5,20.1,12,30.1,18c0.3,0.2,0.4,0.9,0.6,1.3
		c-7.9,0.4-15.8,0.9-23.7,1.1C609.1,345.2,607.7,344.3,606.2,343.9z"/>
	<path class="st7" d="M818.2,917.7c0.3-0.2,0.6-0.4,0.9-0.6c0.7,0.4,1.4,1,2.1,1c14,0.7,28.1,1.3,42.1,2.1
		c5.6,0.3,11.1,1.2,16.7,1.7c5.1,0.5,10.2,0.8,15.3,1.2c0.1-0.3,0.2-0.7,0.3-1c-8.3-7.8-16.5-15.7-24.9-23.4
		c-1.3-1.2-3.1-1.6-4.7-2.4l0-0.1c-0.6-0.7-1.2-1.4-1.8-2c-1.1-1-2.2-2-3.2-3c-0.9-1.5-1.6-3.1-2.8-4.4
		c-5.7-5.9-11.5-11.8-17.3-17.6c1.8-2.4,3.6-4.8,5.4-7.2c1,0.9,2,1.7,3,2.7c12.4,12,24.5,24.4,37.2,36.1c12.3,11.3,25.2,22,37.7,33
		c1.1,0.9,2,2.1,2.6,4c-3.3-0.4-6.6-0.8-9.8-1.2c-3.3-0.4-6.5-0.9-9.7-1.5c-3.8-0.7-7.6-1.6-11.5-2.2c-7-1-14-2.2-21.1-2.7
		c-15.3-1.2-30.7-2.1-46-3.1c-3.8-0.3-7.6-0.6-11.4-0.9l-0.2-0.1c-0.1-1.1,0.3-2.5-0.2-3.3C815.6,920.5,816.7,919.1,818.2,917.7z"/>
	<path class="st5" d="M840.9,869.3c5.8,5.9,11.6,11.7,17.3,17.6c1.2,1.2,1.9,2.9,2.8,4.4c-0.8-0.1-1.7-0.2-2.4-0.4
		c-7.2-1.8-13.5,1.4-15.7,8.3c-0.4,1.2,0.2,2.7,0.3,4c0.3,9.3,9.3,13.8,17.9,8.9c1.5-1.3,3.4-2.3,4.4-3.9c2.4-3.7,1.6-7.8,0.5-11.8
		c1.6,0.8,3.5,1.2,4.7,2.4c8.4,7.7,16.6,15.6,24.9,23.4c-0.1,0.3-0.2,0.7-0.3,1c-5.1-0.4-10.2-0.7-15.3-1.2
		c-5.6-0.5-11.1-1.4-16.7-1.7c-14-0.8-28.1-1.4-42.1-2.1c-0.7,0-1.4-0.7-2.1-1c2-7.6,4-15.3,6-22.9c5-8.3,10-16.7,15-25
		C840.4,869.2,840.6,869.2,840.9,869.3z"/>
	<path class="st7" d="M340.8,252.3c0.1,0.6,0.3,1.3,0.4,1.9c-0.8,1.7-1.9,3.3-2.5,5c-1.9,5.6-3.6,11.3-5.4,16.9
		c-0.1,0.6-0.3,1.1-0.4,1.7c-0.6,2.4-1.3,4.8-1.9,7.2c-2.3,3.4-4.6,6.8-7.1,10.4c10.5,4,20.3,7.8,30.2,11.5l0.2,0.2
		c-1.3,2.3-2.7,4.7-4,7c-8.9-3.2-17.9-6.5-27.5-10c-3.9,11.5-7.7,22.7-11.5,33.9c-0.3,0.1-0.6,0.2-0.8,0.3c-3-0.1-6.1-0.3-9.1-0.4
		c3.5-10.1,7-20.2,10.6-30.3c2.2-6.2,2.1-6.8-3.4-9.7c1.8-1,3.6-2,5.5-3c0.4,6,1.7,7.2,8.9,7.7c0.1-2.8,1.7-6.1-1.3-8.1
		c-2.1-1.4-4.9-1.6-7.4-2.4c0.1-0.4,0.1-0.7,0.2-1.1c5.4-3,6.1-8.8,8-13.8c3.1-8.2,5.9-16.5,8.7-24.8c0.6-1.7,0.7-3.5,1-5.3
		c0.3-0.1,0.7-0.2,1-0.2C335.7,248.8,338.2,250.6,340.8,252.3z"/>
	<path class="st5" d="M311.2,338.1c3.8-11.2,7.6-22.4,11.5-33.9c9.6,3.5,18.6,6.7,27.5,10c0,0.3,0,0.6,0.1,0.9
		c-7.7,11.8-18.1,19.9-32.2,22.6C315.8,338.1,313.5,338,311.2,338.1z"/>
	<path class="st2" d="M301.3,338c3,0.1,6.1,0.3,9.1,0.4c-2.6,7.9-5,15.8-7.8,23.6c-8.3,23.8-16.7,47.5-25,71.3
		c-11.4,32.4-22.8,64.8-34.1,97.2c-8.1,23-16.1,46-24.2,69c-7.2,20.3-14.4,40.6-21.6,61c-0.7,1.9-0.9,3.8-1.4,5.8
		c-0.3,0.4-0.8,0.7-1,1.1c-3.8,10.6-7.5,21.3-11.2,31.9c-6.9,19.7-13.9,39.4-20.8,59.1c-1.5,4.2-2.7,8.5-4,12.7
		c-0.3,0.1-0.5,0.2-0.8,0.2c-2.8-1.3-5.6-2.7-8.4-4c0-0.3,0-0.6,0-0.9c0.3-0.5,0.8-1.1,1-1.6c4.2-11.8,8.4-23.7,12.6-35.6
		c9.5-27,18.9-54,28.4-81.1c10.5-29.9,21-59.8,31.5-89.7c14.3-40.7,28.5-81.4,42.8-122.1c10.8-30.8,21.8-61.6,32.7-92.3
		c0.7-1.9,0.9-3.8,1.4-5.8C300.7,338.2,301,338.1,301.3,338z"/>
	<path class="st3" d="M192,648.1c-9.5,27-18.9,54-28.4,81.1c-4.2,11.9-8.4,23.7-12.6,35.6c-0.2,0.6-0.7,1.1-1,1.6
		c-1-0.3-2-0.5-3-0.8c4.3-11.6,8.6-23.3,12.8-34.9c6.3-17.5,12.6-34.9,18.7-52.4c3.7-10.4,7.1-20.9,10.7-31.6
		C190.3,647.1,191.2,647.6,192,648.1z"/>
	<path class="st2" d="M818.2,917.7c-1.5,1.4-2.6,2.8-1.3,5.1c0.5,0.9,0.2,2.2,0.2,3.3c-6.4,0-12.9,0-19.3,0.1
		c-15.6,0.3-31.2,0.4-46.7,1.1c-15.6,0.7-31.1,1.8-46.7,3c-15.4,1.1-30.7,2.5-46.1,3.9c-14.4,1.3-28.7,2.7-43,4c-19,1.7-38,3.5-57,5
		c-14.2,1.2-28.4,2.2-42.7,3c-9.7,0.6-19.5,0.7-29.3,1c-8.8,0.3-17.6,0.8-26.4,0.9c-5.3,0.1-10.5-0.5-15.8-0.7
		c-16.3,0.2-32.4-1.9-48.4-4.3c-27.3-4-54.4-9.8-80.8-18.1c-23-7.3-46-14.8-68.8-23c-15.1-5.4-29.8-12-44.7-18.1
		c-0.7-0.3-1.6-0.4-2.3-0.6c-0.1-0.3-0.2-0.6-0.2-0.9c1.1-2.8,2.3-5.6,3.4-8.5c21,8.3,41.8,16.9,63,24.7
		c16.9,6.2,34.1,11.9,51.4,17.1c13.6,4.1,27.5,7.4,41.4,10.4c13.7,3,27.6,5.4,41.4,7.8c5.8,1,11.8,1.3,17.7,1.9
		c13.8,0.8,27.5,2,41.3,2.4c13.9,0.4,27.8,0.4,41.7-0.1c13.3-0.5,26.5-1.7,39.7-2.7c10.1-0.7,20.2-1.3,30.3-2.2
		c12.7-1.1,25.4-2.5,38.1-3.7c8.8-0.8,17.5-1.5,26.3-2.3c12.7-1.2,25.4-2.4,38.1-3.6c5.1-0.5,10.2-0.9,15.4-1.3
		c17.6-1.1,35.1-2.2,52.7-3.2c8.1-0.5,16.3-0.7,24.4-0.9c15.8-0.4,31.6-0.7,47.4-1C814.6,917.2,816.4,917.6,818.2,917.7z"/>
	<path class="st2" d="M340.8,252.3c-2.6-1.7-5.1-3.5-7.7-5.2c9.5-27.3,19-54.5,28.6-81.8c5.3-15.2,10.7-30.3,16.1-45.5
		c0.8-2.2,1.3-4.5,1.9-6.7c0.2-0.1,0.4-0.1,0.6-0.2c3,0.8,5.9,1.7,8.9,2.5c-7.6,21.6-15.1,43.2-22.7,64.8
		c-8.1,23.1-16.3,46.3-24.4,69.4C341.8,250.6,341.2,251.4,340.8,252.3z"/>
	<path class="st7" d="M389.2,115.5c-3-0.8-5.9-1.7-8.9-2.5c5.2-15.1,10.5-30.3,15.7-45.5c2.2-6.4,4.1-12.9,6.3-19.3
		c0.8-2.4,2-4.6,3-6.9c0.6,0.1,1.1,0.2,1.7,0.3c0,3.2,0.1,6.3,0,9.5c-0.1,2.8-0.9,5.6-0.7,8.4c0.3,6.6-1.6,12.7-4,18.7
		c-2.3,5.8-4.1,11.8-6.2,17.7c-1.5,4.2-3.2,8.4-4.5,12.6c-0.7,2.2-1,4.5-1.4,6.7C389.8,115.3,389.5,115.4,389.2,115.5z"/>
	<path class="st8" d="M399,109.2c-0.3-0.3-0.6-0.6-0.9-1c0-3.7,0-7.4-0.1-11.1l0,0c2.1,0,3.1-0.9,3-3l0,0c1.7,0,3.3,0.1,5,0.1
		c3.6-0.2,6.6,0.9,8.2,4.3c1.3,2.8,1.8,5.7-0.4,8.4c-2.5,3.2-5.7,5.1-10,4.1c-1.3-0.3-2.6-0.5-3.8-0.8l0,0
		C399.7,109.9,399.4,109.6,399,109.2z M403.2,102.9c0.1,3.4,0.7,4.3,3.5,4.2c2.7,0,4.4-1.7,4.4-4.3c0.1-2.8-1.8-4.7-4.6-4.6
		C403.6,98.3,402.8,99.9,403.2,102.9z"/>
	<path class="st9" d="M400.1,110.3c1.3,0.2,2.6,0.5,3.8,0.8c4.3,1,7.4-0.9,10-4.1c2.1-2.7,1.7-5.6,0.4-8.4c-1.6-3.5-4.6-4.5-8.2-4.3
		c-1.7,0.1-3.3,0-5-0.1c3.5-3.4,7.3-2.3,10.9-0.6c3.8,1.8,5.2,5.3,5.2,9.4c0,4.5-2.6,7.5-6.4,9.2C407,113.8,403.1,114.1,400.1,110.3
		z"/>
	<path class="st9" d="M398.1,97.1c0,3.7,0,7.4,0.1,11.1C395.2,104.6,395.2,100.9,398.1,97.1z"/>
	<path class="st9" d="M401.1,94.1c0.1,2.1-0.9,3.1-3,3C399.1,96.1,400.1,95.1,401.1,94.1z"/>
	<path class="st9" d="M399,109.2c0.4,0.3,0.7,0.7,1.1,1C399.7,109.9,399.4,109.6,399,109.2z"/>
	<path class="st7" d="M202.5,874c-1.1,2.8-2.3,5.6-3.4,8.5c-17.7-8.3-35.4-16.5-53.1-24.8c-6.6-3.1-13-6.6-19.6-9.7
		c-2.7-1.3-3.6-2.6-2.5-5.8c5.6-15.4,10.9-30.9,16.3-46.3c3.3-9.5,6.6-19.1,9.9-28.6c2.8,1.3,5.6,2.7,8.4,4c-0.3,1.4-0.5,2.9-1,4.3
		c-4.3,12.1-8.7,24.1-12.9,36.2c-0.5,1.4-0.3,3-0.4,4.4c-1.4,4-2.8,8-4.2,12.1c-3.7,3.4-4,8.2-5.8,12.9c5,2.7,9.6,5.6,14.4,7.9
		c13.7,6.6,27.4,13,41.2,19.3c4,1.9,8.3,3.2,12.5,4.8C202.3,873.4,202.3,873.7,202.5,874z"/>
	<path class="st10" d="M314.2,292.3c2.5,0.8,5.3,1,7.4,2.4c3,2,1.4,5.3,1.3,8.1c-7.2-0.5-8.5-1.6-8.9-7.7
		C314.1,294.1,314.1,293.2,314.2,292.3z"/>
	<path class="st11" d="M299,643.2c2.2-9.7,4.8-19.3,9.3-28.2c18.2-36.7,47.6-59.5,86.9-69.7c15-3.9,30.3-6,45.8-6.3
		c13.3-0.2,26.6,0.1,39.9,0.3c12.7,0.2,25.3,0,37.6-3.4c25.4-7,40.3-24.4,48.6-48.6c4.1-11.9,6-24.2,5-36.8
		c-0.5-6-1.2-12.1-4.5-17.5c-0.4-0.7-0.2-1.8-0.4-3.5c3.7,2.8,7.2,4.8,10,7.5c16.1,15.8,27.8,34.2,32.1,56.8
		c3.7,19.4,0.6,37.7-8.6,54.9c-11.2,21.2-25.9,39.4-45.9,53c-14.8,10.1-31.4,15.6-49,18.4c-19,3.1-38.2,2-57.3,1.8
		c-13.3-0.2-26.6-1.5-39.9-1.6c-9.3-0.1-18.6,1.2-27.3,4.7c-16.3,6.6-25.3,19.7-30,35.8c-6.5,22.2,5.8,42.3,23.1,52.4
		c12.2,7.1,24.4,3.9,32.4-4.5c9.6-10.1,11.1-22.9,4.2-34.3c-0.8-1.2-1.6-2.4-1.8-4.3c2.2,2.2,5,4,6.6,6.6c3.4,5.2,7,10.4,9.1,16.2
		c8.1,21.6-1.8,40.4-23.6,48.4c-1.5,0.6-3.1,1.1-4.6,1.7c-1,0.2-2,0.2-3,0.5c-14,3.3-27.4,1.4-39.9-5.4c-15.1-8.2-27.7-19.3-38-33.1
		c-9.5-12.7-15.7-26.8-16.8-42.8C298.6,655.8,299,649.5,299,643.2z"/>
	<path class="st11" d="M428.4,764.2c-11.2,12.7-25.9,19.9-41.4,25.7c-14.5,5.3-29.6,7.5-45,7.1c-15-0.4-29.5-3.5-43.5-9.2
		c-30.2-12.4-51.8-33.8-65.7-63c-10-21-13.5-43.3-10.7-66.4c4.7-38.4,23.4-68.2,55.2-90c0.4-0.3,0.7-0.7,1.1-1
		c7.9-4.3,15.5-9.1,24.7-10.9c-9.2,13-18.5,25.7-23.7,40.8c-8,20.9-10.3,42.4-6.3,64.5c7.6,41.3,30.2,71.5,67.5,90.6
		c27.6,14.1,56.7,15.4,86.6,9.6C427.5,762.7,428,763.5,428.4,764.2z"/>
	<path class="st11" d="M444,394.4c-6.7,17.2-7,34,2.9,50c7.6,12.2,18.6,19.6,32.6,22.7c26.1,5.8,58.8-11.9,60.7-50
		c13.4,20.9,10.5,58.7-17.4,80.3c-30.2,23.4-73.2,16.5-94.4-14.9C408,452.1,417.3,412.8,444,394.4z"/>
	<path class="st4" d="M427.1,762c-29.9,5.9-59,4.5-86.6-9.6c-37.4-19.1-59.9-49.3-67.5-90.6c-4.1-22.1-1.7-43.6,6.3-64.5
		c0.7,1.7,1.5,3.4,2,5.2c2.1,6.9,3.9,13.9,6.4,20.6c2.3,6,5.3,11.7,8.2,17.5c0.6,1.1,2,1.8,3.1,2.7c0,6.3-0.4,12.6,0,18.8
		c1.1,16,7.3,30.1,16.8,42.8c10.3,13.7,23,24.9,38,33.1c12.5,6.8,25.9,8.7,39.9,5.4c1-0.2,2-0.3,3-0.5c6.7,3.8,13.4,7.6,20.1,11.5
		c2.5,1.5,5.2,2.8,7.6,4.5C425.5,759.6,426.2,760.9,427.1,762z"/>
	<path class="st3" d="M202.5,874c-0.1-0.3-0.2-0.6-0.1-0.9c0.3-0.6,0.7-1.1,0.9-1.7c4-15.7,3.9-31.3-0.7-47
		c-7-23.9-21.5-41.4-43.1-53.4c1.3-4.2,2.5-8.5,4-12.7c6.9-19.7,13.9-39.4,20.8-59.1c3.7-10.6,7.4-21.3,11.2-31.9
		c0.1-0.4,0.6-0.7,1-1.1c3,6.8,6,13.6,8.9,20.4c8.7,20.4,18.1,40.5,29.5,59.7c5.5,9.2,10.7,18.7,16.5,27.7
		c6.8,10.5,14.1,20.7,21.3,31c2.4,3.4,4.9,6.7,7.6,9.8c1.5,1.8,4,2.9,5.2,4.8c9.1,14.4,20.9,26.4,32.6,38.5
		c9.4,9.8,19.9,18.5,30.1,27.5c7.2,6.3,14.7,12.4,22.4,18.2c7.1,5.4,14.4,10.5,22,15.3c2.9,1.8,4.9,5.8,9.3,4.7
		c5.2,4.1,10.5,8.1,15.7,12.2c-5.9-0.6-11.9-0.9-17.7-1.9c-13.8-2.4-27.7-4.8-41.4-7.8c-13.9-3-27.8-6.3-41.4-10.4
		c-17.3-5.2-34.5-10.8-51.4-17.1C244.3,890.9,223.4,882.3,202.5,874z"/>
	<path class="st5" d="M354.1,307c-9.9-3.8-19.7-7.5-30.2-11.5c2.5-3.6,4.8-7,7.1-10.4c0.4,0.7,0.8,1.5,1.1,2.2c3,6.9,9.6,8.9,16.2,5
		l0,0c1-1,2-2,3-3l0,0c2.9-3.6,2.9-8.6,0-12.1l0,0c-0.7-0.7-1.3-1.4-2-2l0,0c-0.4-0.3-0.7-0.6-1.1-1l0,0c-4-3.1-8-2.7-11.9,0.1
		c-0.4,0.3-0.7,0.6-1.1,0.9c-0.3,0.3-0.7,0.7-1,1l0,0c-0.3,0-0.6,0-0.9,0c1.8-5.7,3.5-11.3,5.4-16.9c0.6-1.8,1.7-3.4,2.5-5
		c10.1,7.6,14.5,18.3,15.9,30.4C357.9,292.2,357.3,299.8,354.1,307z"/>
	<path class="st12" d="M843.2,903.2c-0.1-1.3-0.7-2.8-0.3-4c2.2-6.9,8.5-10.1,15.7-8.3c0.8,0.2,1.6,0.2,2.4,0.4c1.1,1,2.2,2,3.2,3
		c0.6,0.7,1.2,1.4,1.8,2l0,0.1c1.1,4,1.9,8.1-0.5,11.8c-1,1.6-2.9,2.6-4.4,3.9c-1.4-1.3-2.7-2.7-4.1-4c0.8-0.8,2-1.6,2.2-2.6
		c0.4-1.8,0.8-4,0-5.4c-0.6-1.1-3-1.8-4.6-1.7c-3.5,0.1-4.6,2.5-4.1,7.8C848,905.2,845.6,904.2,843.2,903.2z"/>
	<path class="st5" d="M866,896.3c-0.6-0.7-1.2-1.4-1.8-2C864.8,894.9,865.4,895.6,866,896.3z"/>
	<path class="st8" d="M857,908c1.4,1.3,2.7,2.7,4.1,4c-8.6,4.9-17.7,0.4-17.9-8.9c2.4,1,4.9,2,7.3,3
		C852.3,908.2,854.5,908.5,857,908z"/>
	<path class="st9" d="M348.2,292.3c-6.6,3.9-13.2,1.9-16.2-5c-0.3-0.8-0.7-1.5-1.1-2.2c0.6-2.4,1.3-4.8,1.9-7.2c0,0,0.4,0.3,0.4,0.3
		c0,1.5-0.1,2.9,0,4.4c0.1,6.2,3.5,9.5,9.7,9.6C344.7,292.2,346.5,292.3,348.2,292.3z"/>
	<path class="st9" d="M333.3,276.2c0.3,0,0.6,0,0.9,0c-0.3,0.7-0.6,1.4-1,2c0,0-0.4-0.3-0.4-0.3C333,277.3,333.1,276.8,333.3,276.2z
		"/>
	<path class="st5" d="M159.3,771.1c21.6,12,36.2,29.5,43.1,53.4c4.6,15.7,4.7,31.3,0.7,47c-0.2,0.6-0.6,1.1-0.9,1.7
		c-4.2-1.6-8.4-2.9-12.5-4.8c-13.8-6.3-27.5-12.8-41.2-19.3c-4.8-2.3-9.5-5.2-14.4-7.9c1.7-4.7,2-9.5,5.8-12.9c0,0.5,0.1,1,0.1,1.5
		c2,13.5,8.6,19.2,21.6,20.3c11.3,0.9,20.7-11.2,19.9-23c-1-14.2-17.4-22.8-28.9-16.8c-3,1.6-5.7,3.9-8.5,5.9
		c0.1-1.5-0.1-3.1,0.4-4.4c4.2-12.1,8.6-24.1,12.9-36.2c0.5-1.4,0.7-2.9,1-4.3C158.8,771.2,159.1,771.1,159.3,771.1z"/>
	<path class="st12" d="M144.2,816.2c2.8-2,5.4-4.3,8.5-5.9c11.5-6,27.9,2.6,28.9,16.8c0.8,11.7-8.5,23.9-19.9,23
		c-13-1.1-19.5-6.8-21.6-20.3c-0.1-0.5-0.1-1-0.1-1.5C141.4,824.2,142.8,820.2,144.2,816.2z M167.1,822.2
		C167.1,822.2,167.2,822.2,167.1,822.2c-0.2-0.6-0.3-1.4-0.7-1.7c-3.6-2.8-8.6-2.6-12.3,0.4c-3.4,2.7-4.2,7.8-2,12.3
		c2.6,3.8,5.6,6.9,10.8,5.7c6.7-1.6,10.9-9.5,6.2-15.2C168.5,823.1,167.8,822.7,167.1,822.2z"/>
	<path class="st8" d="M333.2,278.2c0.3-0.7,0.6-1.4,1-2c0,0,0,0,0,0c0.3-0.3,0.7-0.7,1-1c0.4-0.3,0.7-0.6,1.1-0.9
		c4,0,7.9,0,11.9-0.1l0,0c0.4,0.3,0.7,0.6,1.1,1l0,0c0.7,0.7,1.3,1.4,2,2l0,0c0,4,0,8.1,0,12.1l0,0c-2.1-0.1-3.1,0.9-3,3l0,0
		c-1.8,0-3.6-0.1-5.4-0.1c-6.2,0-9.6-3.4-9.7-9.6C333.1,281.2,333.2,279.7,333.2,278.2z M347.1,283.1c0-3-1.6-4.8-4.3-4.9
		c-2.4-0.1-5.3,2.4-5.4,4.8c-0.2,2.2,2.6,5.1,5,5.2C345.4,288.2,347.2,286.3,347.1,283.1z"/>
	<path class="st9" d="M348.2,274.2c-4,0-7.9,0-11.9,0.1C340.2,271.5,344.2,271,348.2,274.2z"/>
	<path class="st9" d="M351.2,289.3c0-4,0-8.1,0-12.1C354.1,280.7,354.1,285.7,351.2,289.3z"/>
	<path class="st9" d="M348.2,292.3c-0.1-2.1,0.9-3.1,3-3C350.2,290.3,349.2,291.3,348.2,292.3z"/>
	<path class="st9" d="M351.2,277.2c-0.7-0.7-1.3-1.4-2-2C349.9,275.8,350.5,276.5,351.2,277.2z"/>
	<path class="st9" d="M349.2,275.1c-0.4-0.3-0.7-0.6-1.1-1C348.5,274.5,348.9,274.8,349.2,275.1z"/>
	<path class="st9" d="M335.2,275.2c-0.3,0.3-0.7,0.7-1,1C334.5,275.9,334.8,275.5,335.2,275.2z"/>
	<path class="st13" d="M167.2,822.2c-9.3-2.9-14.6,1-15.1,11c-2.2-4.6-1.4-9.6,2-12.3c3.7-3,8.7-3.2,12.3-0.4
		C166.9,820.8,166.9,821.6,167.2,822.2z"/>
	<path class="st13" d="M169.1,823.6c-0.7-0.5-1.3-0.9-2-1.4C167.8,822.7,168.5,823.1,169.1,823.6z"/>
</g>
</svg>
