<?xml version="1.0" encoding="utf-8"?>
<!-- Generator: Adobe Illustrator 21.1.0, SVG Export Plug-In . SVG Version: 6.00 Build 0)  -->
<svg version="1.1" id="Layer_1" xmlns="http://www.w3.org/2000/svg" xmlns:xlink="http://www.w3.org/1999/xlink" x="0px" y="0px"
	 viewBox="0 0 4326 864.6" style="enable-background:new 0 0 4326 864.6;" xml:space="preserve">
<style type="text/css">
	.st0{fill:none;}
	.st1{fill:#224D7A;}
	.st2{fill:#1D2126;}
	.st3{fill:#C7DEF5;}
	.st4{fill:#C8DFF6;}
	.st5{fill:#1E2226;}
	.st6{fill:#1D2125;}
	.st7{fill:#09090A;}
	.st8{fill:#C8DFF7;}
	.st9{fill:#A7C0D8;}
</style>
<g>
	<path class="st0" d="M524.1,506.1c-0.4-0.1-0.8-0.3-1.3-0.5c0.2,0.2,0.3,0.5,0.5,0.7C523.6,506.2,523.8,506.1,524.1,506.1z"/>
	<path class="st0" d="M751.2,724.5c-0.5,0.2-1,0.3-1.4,0.5c0.6,0.1,1.2,0.2,1.8,0.3C751.5,725,751.3,724.7,751.2,724.5z"/>
	<path class="st0" d="M448.6,393.6c0-0.5,0-1,0.1-1.5c-0.2,0.2-0.5,0.4-0.7,0.6C448.2,393,448.4,393.3,448.6,393.6z"/>
	<path class="st0" d="M3384.8,346.5c0.2,0,0.4-0.1,0.5-0.1c-0.1,0-0.2-0.1-0.3-0.1C3385,346.4,3384.9,346.4,3384.8,346.5z"/>
	<path class="st0" d="M2193.5,724.8c-0.3,0.1-0.6,0.2-0.9,0.3c0.4,0.1,0.7,0.1,1.1,0.2C2193.6,725.1,2193.5,725,2193.5,724.8z"/>
	<path class="st0" d="M3585.4,246.5C3585.4,246.5,3585.4,246.5,3585.4,246.5C3585.4,246.5,3585.4,246.5,3585.4,246.5
		C3585.4,246.5,3585.4,246.5,3585.4,246.5z"/>
	<path class="st0" d="M4326,760.3v-2.4C4325.8,759,4325.8,759.9,4326,760.3z"/>
	<path class="st0" d="M4326,864.6V760.3c-0.1,1.3-0.1,2.7-0.1,4C4325.9,811.6,4326,817.2,4326,864.6z"/>
	<path class="st0" d="M1890.7,393.7c0-0.5,0-0.9,0.1-1.4c-0.2,0.2-0.4,0.4-0.6,0.5C1890.3,393.1,1890.5,393.4,1890.7,393.7z"/>
	<path class="st0" d="M1966.2,506.2c-0.4-0.1-0.9-0.3-1.3-0.5c0.2,0.3,0.3,0.5,0.5,0.8C1965.7,506.3,1965.9,506.2,1966.2,506.2z"/>
	<path class="st1" d="M4113.4,788.6c-7,1.6-12.7,1-21.5,0.8c-19.8-2.4-39.7-3.4-59.5-5.2c-25.1-2.2-50.2-4.8-75.3-7
		c-17.9-1.6-35.7-2.9-53.6-4.5c-29.8-2.6-59.5-5.4-89.2-8c-37.4-3.3-74.7-6.3-112.1-10.1c-27.7-2.8-55.4-6.6-83-10.2
		c-2.7-0.4-5.7-2-7.6-4c-15.3-15.8-30.4-31.7-45.5-47.7c-7.3-7.7-14.4-15.7-21.8-23.4c-28.7-30.1-57.5-60.1-86.2-90.3
		c-10.1-10.6-19.8-21.5-29.7-32.3c0,0,0,0,0-0.1c0,0-0.1,0-0.1,0.1c-7,2.1-14.1,3.8-20.9,6.5c-5.1,2-8.1,0.7-10.8-3.5
		c-4.9-7.5-9.9-15-14.9-22.4c-27-40.2-54-80.5-81-120.7c-1.1-1.7-2.1-3.4-3.3-5c-2.3-3.3-1.6-6.2,1.3-8.8c0.5-0.4,0.9-0.9,1.4-1.4
		c22.4-22.2,44.8-44.6,67.3-66.7c4-3.9,8.6-7,13.8-11.2c8.8,11.2,17.1,21.8,25.4,32.5c0.6,0.8,0.4,2.2,0.6,3.5c0,0,0,0,0,0
		c0.3-0.1,0.5-0.2,0.5-0.4c0-0.2-0.1-0.3-0.1-0.5c0,0,0,0,0,0c0,0,0,0,0,0c0,0,0,0,0,0c0,0,0,0,0,0c0.6,0.3,0.9,0.8,1.2,1.3
		c0.6,0.7,1.3,1.3,1.9,1.9c0.5,0.2,0.9,0.6,1.3,1.3c0,1.1,0,2.1,0,3.2c-1.3-0.5-2.7-1-4-1.6c0,0,0-0.1,0-0.1c0,0,0,0,0,0
		c-7.4-2.7-14.7-5.3-22.6-8.2c-0.2,0-0.4,0.1-0.5,0.1c-17.5,15-35.1,30-53.6,45.8c24.1,38.4,50.1,75.2,75,114
		c50.6-15.5,100.7-30.8,152-46.5c9-70.8,18.1-141.8,27.2-213.3c0,0,0,0,0,0c-97.8-61.6-195.1-123-293.1-184.7
		C3281,72,3269.9,82,3258.9,92c-21.4,19.5-42.7,39.1-64,58.6c-17.7,16.2-35.3,32.3-53,48.4c-25.3,23.1-50.7,46-76,69.1
		c-23.1,21.1-46.1,42.3-69.3,63.2c-3.3,3-3,6.4-2.9,10c0.2,29.6,0.5,59.3,0.6,88.9c0.1,24.3-0.2,48.7,0.1,73
		c0.5,38.3,1.5,76.5,2,114.8c0.2,14.3-0.2,28.6-0.8,42.9c-0.1,2.9-1.9,6.2-3.9,8.6c-6.3,7.5-14.3,12.6-23.4,16.5
		c-25.7,11.1-50.8,23.3-76.8,33.5c-20.7,8.1-42.2,14.2-63.5,20.7c-51.8,15.9-103.8,31.6-155.6,47.5c-7.5,2.3-14.8,2.1-22.6,1.2
		c-17.5-2.1-35.1-3-52.6-4.5c-30.1-2.6-60.2-5.4-90.2-8c-40-3.5-80-6.9-120-10.5c-29.7-2.6-59.5-5.2-89.2-8
		c-17.5-1.6-35-3.3-52.5-5.3c-21.4-2.5-42.8-5.6-64.2-8c-5-0.6-8.7-2.3-12.1-5.9c-21.4-22.8-42.8-45.6-64.3-68.3
		c-14.2-15-28.5-29.8-42.7-44.8c-24.3-25.6-48.5-51.2-72.8-76.8c-0.6-0.6-1-1.5-1.5-2.3c0,0-0.1,0-0.1,0c-9.2,2.7-18.4,5.3-28.5,8.3
		c-35.1-52.3-70.2-104.6-105.8-157.7c26.8-29.5,57.1-54.8,85.4-84.2c3.1,3.4,5.6,5.8,7.7,8.5c6.3,7.7,12.6,15.5,18.6,23.4
		c1.3,1.7,1.9,4,2.9,6.1c0,0,0,0,0,0l-0.1-0.3c0.7,0.7,1.4,1.4,2.2,2c0.4,1.1,0.9,2.2,2,5.3c-4.3-2.3-7.1-3.7-9.9-5c0,0,0,0,0,0
		c-0.3-0.1-0.7,0-1-0.2c-12.1-7.5-21.4-4.3-31.2,5.5c-11.9,12-25.5,22.4-39.2,34.1c-0.1,0.5-0.1,0.9-0.1,1.4
		c24.7,37.4,49.2,74.2,74.2,112c0.4,0.2,0.9,0.4,1.3,0.5c50.3-15.4,100.5-30.7,151-46.3c9.1-71.1,18.1-141.8,27.2-213.2
		c-97.6-61.5-195-122.9-293-184.7c-7.1,6.3-14.1,12.3-20.9,18.5c-38.1,34.7-76.2,69.5-114.2,104.3c-32.9,30.1-65.7,60.3-98.5,90.4
		c-20.1,18.4-40.2,36.9-60.6,55c-3.7,3.3-5,6.4-5,11.1c0.2,25.7-0.1,51.3,0.1,77c0.3,38.6,0.9,77.2,1.3,115.8
		c0.3,24.3,0.5,48.6,0.7,73c0.1,17.6-0.1,35.1,0.2,52.7c0.1,4.7-1.6,7.9-4.8,11.4c-6.5,7-14.4,11.6-23.1,15.4
		c-22,9.5-44.1,18.8-65.8,29c-19.4,9.2-40,14.6-60.3,20.8c-55,17-110.2,33.5-165.2,50.4c-9.4,2.9-18.5,3.7-28.4,2.4
		c-17.4-2.3-35-3.1-52.6-4.6c-29.8-2.6-59.5-5.3-89.3-7.9c-40-3.5-80-7-120-10.5c-29.8-2.6-59.5-5.2-89.2-8
		c-17.5-1.6-35-3.3-52.5-5.3c-21.4-2.5-42.8-5.6-64.2-8c-5-0.6-8.7-2.2-12.1-5.9c-21.4-22.8-42.8-45.6-64.3-68.3
		c-14.2-15-28.5-29.8-42.7-44.8c-24.3-25.6-48.5-51.2-72.8-76.9c-0.7-0.7-1.1-1.7-1.6-2.5c-9.2,2.7-18.4,5.4-28.5,8.3
		c-35.1-52.3-70.2-104.6-105.8-157.7c26.8-29.5,57.1-54.8,85.4-84.2c3.1,3.4,5.6,5.8,7.7,8.5c6.3,7.7,12.6,15.5,18.6,23.4
		c1.3,1.7,1.9,4,2.9,6.1l-0.1-0.3c0.7,0.6,1.4,1.4,2.2,2c0.4,1.1,0.9,2.2,2,5.3c-4.4-2.3-7.2-3.7-10-5.1c0,0,0,0,0,0c0,0,0,0,0,0
		c-0.3-0.1-0.7,0-1-0.2c-12.1-7.4-21.4-4.3-31.2,5.5c-11.9,12-25.4,22.3-39.1,34c-0.1,0.5-0.1,1-0.1,1.5
		c24.7,37.3,49.2,74.1,74.2,112c0.4,0.2,0.8,0.4,1.3,0.5c50.2-15.4,100.4-30.7,151-46.3c9.1-71,18.1-141.7,27.2-213.2
		C605,185.2,507.6,123.8,409.4,62c-7,6.2-14,12.2-20.7,18.4c-32.4,29.6-64.7,59.4-97.1,89c-36.3,33.2-72.9,66.2-109.2,99.3
		c-22.9,20.8-45.6,41.8-68.5,62.6c-2.8,2.5-3.7,5.2-3.7,8.7c0.1,26.7-0.1,53.3,0.1,80c0.1,17.3,1.1,34.6,1.2,51.8
		c0.4,44.6,0.5,89.3,0.7,133.9c0.1,17.6-0.2,35.1,0.1,52.7c0.1,5.6-1.9,9.3-5.9,12.9C73.6,701,41,730.9,8.2,760.5
		c-2.1,1.9-5.2,2.7-8,3.9c-0.1,0.1-0.1,0.1-0.2,0.2c0,33.3,0,66.7,0,100c1442,0,2884,0,4326,0c0-47.4-0.1-53-0.1-100.3L4113.4,788.6
		z M1970.1,352.6c-0.8-0.7-1.5-1.3-2.2-2C1968.6,351.3,1969.4,351.9,1970.1,352.6z M528.1,352.6c-0.8-0.7-1.5-1.3-2.2-2
		C526.6,351.3,527.4,351.9,528.1,352.6z"/>
	<path class="st2" d="M94.2,671.6c3.6-3.1,3.9-6.5,3.9-10.6c0-27.7,0.2-55.3,0.2-83c0.1-80,0.2-159.9,0.1-239.9
		c0-6.1,1.6-10.5,6.1-14.8c98-95.7,195.8-191.5,293.6-287.4c1.2-1.2,2.4-2.2,4.6-4.2c102,70.5,204.1,141.1,306.4,211.8
		c-1.9,20.9-3.7,41.4-5.7,61.9c-2.4,24.8-5,49.7-7.4,74.5c-2.8,28.8-5.6,57.6-8.2,86.5c-0.4,4.2-1.8,6.6-6,7.9
		c-53,16.7-105.9,33.6-158.9,50.4c-0.6,0.2-1.3,0-3.4,0c-28.1-43.8-56.7-88.2-85.8-133.4c21.8-18.8,43.5-37.5,65.8-56.7
		c6.9,4.7,13.7,9.3,20.5,14c0,0,0,0,0,0c0,0,0,0,0,0c1.4,0.6,2.8,1.1,4.3,1.7c-0.4-0.6-0.7-1.1-1.1-1.6
		c-6.7-8.8-13.8-17.2-20.5-25.9c-3.8-5-7.4-4.9-11.5-0.6c-22.8,23.8-48.2,45-71,68.8c-4.6,4.8-4.6,8.8-1,14
		c32.3,46.6,63.3,94,94.7,141.1c3.5,5.3,7.3,5.3,12.8,3.7c6.6-1.9,12.9-6.6,20.2-3.9c6.8-3,7.2-2.7,12.9,3.1
		c50.9,51.8,102.1,103.3,152.4,155.6c10.8,11.3,23,17.7,37.6,20.4c0.5-0.1,0.9-0.3,1.4-0.5c-1.4-3.1-2.9-6.3-4.2-9.5
		c-1.2-3.2-1.9-6.5-2.9-9.8c0.1,0,0.2,0,0.3,0c0,0,0-0.1-0.1-0.1c-2-2.2-3.9-4.5-6-6.6c-52-51.2-104.1-102.3-156.1-153.5
		c-2.5-2.4-4.9-5-8.3-8.4c49-16.4,96.5-32.3,144-48.2c0.2-1.9,0.5-3.2,0.5-4.5c1.1-81,2.2-161.9,3.4-242.9c0.1-4.9-1.7-7.9-5.6-10.6
		c-11.2-7.9-22.2-16-33.2-24.1C591.3,139.4,499.5,72.4,407.8,5.4c-2.6-1.9-5.4-3.6-8.1-5.5c-3,2.7-5.5,4.9-7.9,7.2
		c-90.3,85.4-180.5,170.9-271.1,256c-15.4,14.5-29.2,30-40.4,47.9c-2.8,4.4-4.4,8.6-4.2,13.9c1.1,27.9,1.8,55.9,2.7,83.9
		c2.5,80.3,4.9,160.5,7.5,240.8c0.2,5.9-1.7,9.7-6.2,13.5c-24.1,20.5-47.9,41.3-71.9,62c-2.5,2.1-5.5,3.6-8.2,5.4c0,6,0,12,0,18
		c0,0,0.1,0,0.1,0.1c2-0.6,4.3-0.7,5.8-1.9C35.4,721.7,64.7,696.5,94.2,671.6z"/>
	<path class="st2" d="M546.9,545.9c-7.4-2.8-13.7,2-20.2,3.9c-5.5,1.6-9.3,1.6-12.8-3.7c-31.4-47.1-62.4-94.5-94.7-141.1
		c-3.6-5.2-3.6-9.2,1-14c22.8-23.8,48.2-45,71-68.8c4.1-4.3,7.7-4.4,11.5,0.6c6.7,8.7,13.8,17.1,20.5,25.9c0.3,0.5,0.7,1,1.1,1.6
		c0.5,0.2,1.1,0.4,1.6,0.6c-1-2.1-1.6-4.4-2.9-6.1c-6-7.9-12.3-15.7-18.6-23.4c-2.1-2.7-4.6-5.1-7.7-8.5
		c-28.3,29.4-58.6,54.7-85.4,84.2c35.6,53.1,70.7,105.4,105.8,157.7c10.1-2.9,19.3-5.6,28.5-8.3v0
		C546.1,546.3,546.5,546.1,546.9,545.9z"/>
	<path class="st3" d="M102.8,671.2c4.5-4.6,6.6-9.6,6.7-16c0.4-73.6,0.7-147.2-0.6-220.7c-0.5-28.9-0.6-57.9-1.5-86.9
		c-0.3-9,2.2-16.2,9.1-22.1c26.4-22.9,51.7-47.1,77.7-70.4c17.8-16,35.5-32.3,53.1-48.5c36.5-33.6,73.2-67,109.9-100.4
		c12.6-11.4,25.2-22.8,37.4-34.6c12.9-12.5,14.2-12.5,29-3.2c77.3,48.5,154.6,97.3,231.8,146c13.8,8.7,27.6,17.5,41.3,26.3
		c5.6,3.6,8.2,8.2,7.3,15.1c-8.6,64.7-16.6,129.5-24.9,194.2c-1,8.1-4.5,12.5-12.1,14.9c-44.2,13.7-88.6,27-132.8,40.8
		c-3.8,1.2-7.2,1.3-10.1,0.4c-0.3,0.1-0.5,0.2-0.8,0.2c-0.2-0.2-0.3-0.5-0.5-0.7c-2.5-1.1-4.7-3.2-6.7-6.2
		c-20.8-31.4-42.1-62.5-62.4-94.2c-3.3-5.1-5-8.6-5.1-11.6c-0.2-0.3-0.4-0.6-0.6-0.9c0.2-0.2,0.5-0.4,0.7-0.6
		c0.6-3.4,3.6-6.5,9.3-11.1c10.6-8.6,21.2-17.3,31-26.7c9.6-9.2,19.1-9.6,30-4c0.3,0.1,0.7,0.3,1,0.4c0,0,0-0.1,0-0.1
		c-0.5-0.2-1-0.5-1.5-0.7c-19.4-12.2-19.3-12-36.5,3.2c-11.7,10.4-23.7,20.5-35.7,30.6c-8.1,6.8-8.6,9.6-2.8,18.6
		c23.9,36.9,47.8,73.8,71.2,111.1c4.5,7.2,9.4,8.9,17.4,6.2c46.1-15.4,92.6-29.9,139-44.5c13.3-4.2,12.8-4.5,14.3-17.9
		c4.9-44,8.4-88.1,13.2-132.1c2.4-21.8,3.9-43.7,6.5-65.5c1.2-10.3-2.1-17.1-11-23.3c-94.4-65-188.7-130.1-282.8-195.5
		c-6.4-4.5-11.3-4.9-16.2,1.3c-0.8,1,0.2-0.2-0.7,0.7c-42.3,43.5-86.7,84.8-129.8,127.4C226.3,208,188,246.1,149.3,283.6
		c-13.1,12.7-26.4,25.4-39.7,37.9c-6.6,6.2-9.1,13.1-9.1,22.1c0.2,102.3,0,204.6,0.4,306.9c0.1,13.1-3.5,22.2-14,30.8
		c-25,20.4-49.3,41.8-73.9,62.7c-3.6,3.1-7,7.5-12.9,4.6c0,0-0.1,0-0.1,0c0,5.3,0,10.7-0.2,16c0.1-0.1,0.3-0.1,0.4-0.2
		c28.2-25.7,56.9-51,84.6-77.3C90.6,681.6,97.2,677,102.8,671.2z"/>
	<path class="st3" d="M516.1,499.4c2,3,4.2,5,6.7,6.2c-25-37.8-49.5-74.6-74.2-112c0.1,3,1.8,6.5,5.1,11.6
		C474,436.9,495.3,468,516.1,499.4z"/>
	<path class="st3" d="M519,350.3c-10.9-5.6-20.4-5.2-30,4c-9.8,9.4-20.4,18.1-31,26.7c-5.6,4.6-8.7,7.7-9.3,11.1
		c13.7-11.7,27.2-22,39.1-34c9.8-9.8,19.1-12.9,31.2-5.5c0.3,0.2,0.7,0.1,1,0.2c0,0,0,0,0,0c0-0.7,0-1.4,0-2.1
		C519.7,350.6,519.3,350.4,519,350.3z"/>
	<path class="st3" d="M106.4,671.3c4-3.6,6-7.3,5.9-12.9c-0.3-17.6,0-35.1-0.1-52.7c-0.2-44.6-0.3-89.3-0.7-133.9
		c-0.1-17.2-1.1-34.5-1.2-51.8c-0.2-26.7,0-53.3-0.1-80c0-3.5,0.9-6.2,3.7-8.7c22.9-20.8,45.6-41.8,68.5-62.6
		c36.3-33.1,72.9-66.1,109.2-99.3c32.4-29.6,64.7-59.4,97.1-89c6.7-6.2,13.7-12.2,20.7-18.4c98.2,61.8,195.6,123.2,292.9,184.6
		c-9.1,71.5-18.1,142.2-27.2,213.2c-50.6,15.5-100.8,30.8-151,46.3c3,1,6.3,0.8,10.1-0.4c44.2-13.8,88.6-27.1,132.8-40.8
		c7.6-2.4,11.1-6.8,12.1-14.9c8.3-64.7,16.3-129.5,24.9-194.2c0.9-6.9-1.7-11.5-7.3-15.1c-13.7-8.8-27.5-17.6-41.3-26.3
		c-77.2-48.7-154.5-97.5-231.8-146c-14.8-9.3-16.1-9.3-29,3.2c-12.2,11.8-24.8,23.2-37.4,34.6c-36.7,33.4-73.4,66.8-109.9,100.4
		c-17.6,16.2-35.3,32.5-53.1,48.5c-26,23.3-51.3,47.5-77.7,70.4c-6.9,5.9-9.4,13.1-9.1,22.1c0.9,29,1,58,1.5,86.9
		c1.3,73.5,1,147.1,0.6,220.7c-0.1,6.4-2.2,11.4-6.7,16c-5.6,5.8-12.2,10.4-18,15.9c-27.7,26.3-56.4,51.6-84.6,77.3
		c2.8-1.2,5.9-2,8-3.9C41,730.9,73.6,701,106.4,671.3z"/>
	<path class="st3" d="M13,744c24.6-20.9,48.9-42.3,73.9-62.7c10.5-8.6,14.1-17.7,14-30.8c-0.4-102.3-0.2-204.6-0.4-306.9
		c0-9,2.5-15.9,9.1-22.1c13.3-12.5,26.6-25.2,39.7-37.9c38.7-37.5,77-75.6,115.3-113.4c43.1-42.6,87.5-83.9,129.8-127.4
		c0.9-0.9-0.1,0.3,0.7-0.7c4.9-6.2,9.8-5.8,16.2-1.3c94.1,65.4,188.4,130.5,282.8,195.5c8.9,6.2,12.2,13,11,23.3
		c-2.6,21.8-4.1,43.7-6.5,65.5c-4.8,44-8.3,88.1-13.2,132.1c-1.5,13.4-1,13.7-14.3,17.9c-46.4,14.6-92.9,29.1-139,44.5
		c-8,2.7-12.9,1-17.4-6.2c-23.4-37.3-47.3-74.2-71.2-111.1c-5.8-9-5.3-11.8,2.8-18.6c12-10.1,24-20.2,35.7-30.6
		c17.2-15.2,17.1-15.4,36.5-3.2c0.5,0.2,1,0.5,1.5,0.7c0-0.7,0-1.4,0-2c0,0,0,0,0,0c-6.8-4.7-13.6-9.3-20.5-14
		c-22.3,19.2-44,37.9-65.8,56.7c29.1,45.2,57.7,89.6,85.8,133.4c2.1,0,2.8,0.2,3.4,0c53-16.8,105.9-33.7,158.9-50.4
		c4.2-1.3,5.6-3.7,6-7.9c2.6-28.9,5.4-57.7,8.2-86.5c2.4-24.8,5-49.7,7.4-74.5c2-20.5,3.8-41,5.7-61.9
		C606.8,172.8,504.7,102.2,402.7,31.7c-2.2,2-3.4,3-4.6,4.2c-97.8,95.9-195.6,191.7-293.6,287.4c-4.5,4.3-6.1,8.7-6.1,14.8
		c0.1,80,0,159.9-0.1,239.9c0,27.7-0.2,55.3-0.2,83c0,4.1-0.3,7.5-3.9,10.6c-29.5,24.9-58.8,50.1-88.3,75.1
		c-1.5,1.2-3.8,1.3-5.8,1.9C6,751.5,9.4,747.1,13,744z"/>
	<path class="st4" d="M4120.7,773.7c-13.7,4.1-26.7,3.9-40.2,2.3c-31-3.7-61.9-7.4-92.9-11.1c-45.2-5.3-90.3-10.8-135.5-15.8
		c-24.8-2.7-49.6-4.5-74.4-6.8c-33.7-3.1-67.4-6.4-101.2-9.2c-13.3-1.1-26.6-1.2-39.2-6.4c-1-0.6-2.2-1.2-3.4-1.8
		c-7.4-2-14.9-3.4-22-6.1c-3.5-1.3-6.5-4.4-9.3-7.2c-52.5-53.3-104.9-106.7-157.3-160.1c-2.6-2.6-4.8-5.5-7.7-8.8
		c-3.1,1.3-5.7,2.5-8.3,3.6c0.2,0.1,0.4,0.1,0.6,0.2c21,18.1,38.7,39.5,57.6,59.6c16.2,17.2,32.9,34,48.8,51.5
		c23.8,26.1,49,50.9,72.6,77.1c4,4.4,8.7,7,14.6,7.8c15.5,2.2,31.2,3,46.6,5.5c36.9,5.8,74.1,7.7,111.2,11.3
		c33.1,3.2,66.3,5.8,99.4,8.8c33.8,3.1,67.6,5.8,101.4,9.1c32.8,3.2,65.8,4.5,98.4,9.2c21.7,3.2,40.7-3.8,60.3-9.9
		c57.6-17.9,114.8-5,172.7-11.9c4.1-1.3,8.2-3.6,12.4-0.3c0-1.3,0-2.7,0.1-4c-0.2-0.4-0.2-1.3,0-2.4v-9.4
		C4259.4,773.5,4187.9,753.3,4120.7,773.7z"/>
	<path class="st4" d="M3428.4,546.7c9.9,10.8,19.6,21.7,29.7,32.3c28.7,30.2,57.5,60.2,86.2,90.3c7.4,7.7,14.5,15.7,21.8,23.4
		c15.1,16,30.2,31.9,45.5,47.7c1.9,2,4.9,3.6,7.6,4c27.6,3.6,55.3,7.4,83,10.2c37.4,3.8,74.7,6.8,112.1,10.1
		c29.7,2.6,59.4,5.4,89.2,8c17.9,1.6,35.7,2.9,53.6,4.5c25.1,2.2,50.2,4.8,75.3,7c19.8,1.8,39.7,2.8,59.5,5.2
		c8.8,0.2,14.5,0.8,21.5-0.8l212.5-24.3c-4.2-3.3-8.3-1-12.4,0.3c-57.9,6.9-115.1-6-172.7,11.9c-19.6,6.1-38.6,13.1-60.3,9.9
		c-32.6-4.7-65.6-6-98.4-9.2c-33.8-3.3-67.6-6-101.4-9.1c-33.1-3-66.3-5.6-99.4-8.8c-37.1-3.6-74.3-5.5-111.2-11.3
		c-15.4-2.5-31.1-3.3-46.6-5.5c-5.9-0.8-10.6-3.4-14.6-7.8c-23.6-26.2-48.8-51-72.6-77.1c-15.9-17.5-32.6-34.3-48.8-51.5
		c-18.9-20.1-36.6-41.5-57.6-59.6c-0.2-0.1-0.4-0.2-0.6-0.2C3429,546.4,3428.7,546.5,3428.4,546.7
		C3428.4,546.7,3428.4,546.7,3428.4,546.7z"/>
	<path class="st5" d="M2974,670.1c7.1-0.9,7.3-5.9,7.3-11.6c0.1-84.7,0.2-169.3,0.4-254c0-22.3,0.2-44.7,0-67
		c-0.1-5.7,1.5-9.9,5.7-14c98-95.7,195.8-191.6,293.7-287.5c1.4-1.4,2.9-2.5,4.8-4.2c102.2,70.6,204,141.1,306.4,211.8
		c-7.4,75.9-14.9,151.7-22.4,228.8c-55.1,17.6-110.5,35.3-166.7,53.2c-28.8-44.8-57.4-89.2-86.4-134.5c22-18.9,43.6-37.5,65.3-56.2
		c8.5,5,16.5,9.6,24.5,14.2c-0.4-0.5-0.9-1-1.3-1.5c-6.2-8.3-13.1-15.9-19.1-24.3c-3.5-4.9-7.1-5.2-11.7-1.4
		c-2.6,2.1-5.2,4.1-7.6,6.4c-20.5,20.4-40.8,41.1-61.5,61.3c-5.8,5.7-6.4,10.4-1.8,17.3c30.6,46,61.7,91.5,92.3,137.5
		c4.4,6.6,8.9,7.6,15.9,5c5.4-2,10.8-5.6,17-3.4c3.6-6.1,8.3-6,13.3-1.5c7,6.2,13.7,12.7,19.8,19.7c26.3,30.1,55.7,57.2,83.9,85.5
		c16.5,16.5,32.4,33.5,48,50.7c11,12.1,23.7,19.4,39.2,22.2c-0.7-1.9-1.5-3.8-2.1-5.8c-1.1-3.5-1.9-7-2.7-10.6c0,0,0-0.1-0.1-0.1
		c-2.3-2.4-4.4-4.9-6.8-7.2c-52-51.2-104.1-102.4-156.1-153.6c-2.6-2.5-5.1-5.1-8.5-8.5c49.1-16.5,96.9-32.5,144.1-48.3
		c0.4-1.5,0.6-1.8,0.6-2.1c0.9-81.9,1.8-163.9,2.9-245.9c0.1-4.6-1.6-7.4-5.2-9.9c-10.8-7.7-21.5-15.6-32.3-23.5
		c-91.5-66.8-183-133.6-274.5-200.4c-3.1-2.3-6.4-4.4-9.7-6.7c-2.9,2.7-5.4,4.9-7.8,7.2C3184,93,3093.3,179,3002.4,264.6
		c-15.3,14.3-28.5,29.8-39.3,47.5c-2,3.2-3.5,7.3-3.4,11c0.9,40.3,2.1,80.6,3.3,120.9c2.1,68.7,4.2,137.3,6.4,205.9
		c0.1,2.9,0.5,6-2.4,7.9C2972.5,660,2972.6,665.4,2974,670.1z"/>
	<path class="st5" d="M3411.8,549.4c-7,2.6-11.5,1.6-15.9-5c-30.6-46-61.7-91.5-92.3-137.5c-4.6-6.9-4-11.6,1.8-17.3
		c20.7-20.2,41-40.9,61.5-61.3c2.4-2.3,5-4.3,7.6-6.4c4.6-3.8,8.2-3.5,11.7,1.4c6,8.4,12.9,16,19.1,24.3c0.4,0.5,0.8,1,1.3,1.5
		c0.2,0.1,0.4,0.2,0.6,0.3c-0.1-1.2,0.1-2.7-0.6-3.5c-8.3-10.7-16.6-21.3-25.4-32.5c-5.2,4.2-9.8,7.3-13.8,11.2
		c-22.5,22.1-44.9,44.5-67.3,66.7c-0.5,0.5-0.9,1-1.4,1.4c-2.9,2.6-3.6,5.5-1.3,8.8c1.2,1.6,2.2,3.3,3.3,5c27,40.2,54,80.5,81,120.7
		c5,7.4,10,14.9,14.9,22.4c2.7,4.2,5.7,5.5,10.8,3.5c6.8-2.7,13.9-4.4,20.9-6.5c0,0,0.1,0,0.1-0.1c0.1-0.2,0.2-0.4,0.3-0.6
		C3422.6,543.8,3417.2,547.4,3411.8,549.4z"/>
	<path class="st5" d="M3593.8,700.4c-15.6-17.2-31.5-34.2-48-50.7c-28.2-28.3-57.6-55.4-83.9-85.5c-6.1-7-12.8-13.5-19.8-19.7
		c-5-4.4-9.8-4.6-13.3,1.5c0.2,0.1,0.4,0.1,0.5,0.2c2.6-1.1,5.2-2.2,8.3-3.6c2.9,3.3,5.1,6.2,7.7,8.8
		c52.4,53.4,104.8,106.8,157.3,160.1c2.8,2.8,5.8,5.9,9.3,7.2c7.1,2.7,14.6,4.1,22,6.1c-0.3-0.8-0.6-1.5-0.9-2.3
		C3617.5,719.8,3604.8,712.5,3593.8,700.4z"/>
	<path class="st5" d="M3428.4,546.6c0.3-0.1,0.6-0.3,0.9-0.4c-0.2-0.1-0.4-0.2-0.5-0.2C3428.7,546.2,3428.5,546.4,3428.4,546.6z"/>
	<path class="st6" d="M1532,670.5c0,0-0.1,0.1-0.1,0.1C1531.9,670.6,1532,670.6,1532,670.5c2.5-0.8,4.9-1.7,8.1-2.9
		c0-3.7,0-7.3,0-10.9c0.1-106,0.3-212,0.3-318c0-6.5,1.7-11.1,6.5-15.7c97.5-95.2,194.9-190.6,292.3-286c1.6-1.6,3.4-3.1,5.6-5.1
		c102.1,70.6,204,141,306.3,211.8c-1.2,14.1-2.3,28-3.7,41.8c-2.3,23.5-4.8,47-7.1,70.5c-3.6,36.8-7.1,73.6-10.5,110.3
		c-0.4,4.1-1.6,6.7-5.9,8c-53.3,16.8-106.6,33.7-159.9,50.6c-0.3,0.1-0.6,0-2.5-0.2c-28-43.6-56.6-88.1-85.7-133.3
		c21.8-18.8,43.5-37.5,65.8-56.7c6.9,4.7,13.6,9.3,20.4,13.9c0,0,0,0,0,0c1.5,0.6,3,1.2,4.5,1.7c-0.5-0.6-0.9-1.3-1.3-1.8
		c-6.5-8.5-13.4-16.7-19.8-25.1c-3.8-5-7.4-6.3-12.2-1.4c-22.8,23.8-48.2,45-71,68.8c-4.6,4.8-4.6,8.8-1,14
		c32.2,46.6,63.3,93.9,94.7,141.1c3.5,5.3,7.3,5.3,12.8,3.7c6.6-1.9,12.9-6.6,20.2-3.9c6.8-3,7.1-2.7,12.9,3.1
		c50.9,51.8,102.1,103.3,152.4,155.6c11,11.7,23.4,18.2,38.4,20.7c0.3-0.1,0.6-0.2,0.9-0.3c-1.4-3.2-3-6.5-4.3-9.8
		c-0.9-2.3-1.5-4.7-2.1-7.1c-0.4-0.7-0.8-1.5-1.1-2.3c-2-2.2-3.9-4.5-6-6.6c-52-51.2-104-102.3-156-153.5c-2.6-2.5-5-5.1-8.4-8.5
		c48.9-16.3,96.5-32.3,144.1-48.2c0.1-2.8,0.4-5.1,0.4-7.4c1-79.6,2-159.2,3.3-238.8c0.1-5.7-1.7-9.1-6.3-12.3
		c-11.3-7.7-22.2-15.9-33.2-24C2032.5,139.5,1941.1,72.8,1849.6,6c-2.6-1.9-5.3-3.7-8.2-5.6c-3.1,2.9-5.9,5.3-8.5,7.8
		c-90.3,85.3-180.5,170.8-271.1,255.9c-15.4,14.5-29,30.1-40.2,48c-2.6,4.1-3.9,8.1-3.7,13c0.8,19.6,1.3,39.3,1.9,58.9
		c1.8,55.9,3.6,111.9,5.3,167.8c1,32.3,1.9,64.6,2.8,96.9c0.1,3.4,0.9,7.1-2.4,9.5C1532.1,659.9,1532.1,665.2,1532,670.5z"/>
	<path class="st6" d="M1988.9,545.7c-7.4-2.8-13.7,2-20.2,3.9c-5.5,1.6-9.3,1.6-12.8-3.7c-31.4-47.2-62.5-94.5-94.7-141.1
		c-3.6-5.2-3.6-9.2,1-14c22.8-23.8,48.2-45,71-68.8c4.8-4.9,8.4-3.6,12.2,1.4c6.4,8.4,13.3,16.6,19.8,25.1c0.4,0.6,0.8,1.3,1.3,1.8
		c0.5,0.2,1,0.4,1.4,0.6c-1-2.1-1.6-4.4-2.9-6.1c-6-7.9-12.3-15.7-18.6-23.4c-2.1-2.7-4.6-5.1-7.7-8.5
		c-28.3,29.4-58.6,54.7-85.4,84.2c35.6,53.1,70.7,105.4,105.8,157.7c10.1-3,19.3-5.6,28.5-8.3c0,0,0.1,0,0.1,0
		c0-0.1-0.1-0.1-0.1-0.2C1988.1,546.1,1988.5,545.9,1988.9,545.7z"/>
	<path class="st7" d="M752.9,723.8c-0.6,0.3-1.1,0.5-1.7,0.7c0.1,0.3,0.2,0.5,0.4,0.8c0,0,0.1,0,0.1,0c8.3,2.2,16.4,5.7,24.9,6.5
		c27.4,2.8,54.9,4.4,82.3,7.1c55.8,5.5,111.5,11.3,167.2,17.2c37.6,4,75.1,8.4,112.7,12.7c25,2.9,50,6,75.1,8.9
		c2.9,0.3,6,0.1,8.8-0.7c69.8-20.5,139.6-41,209.4-61.7c7.3-2.2,14.4-5.1,21.3-8.2c23.6-10.7,47.2-21.6,70.7-32.4
		c2.5-1.1,4.9-2.6,7.3-3.8c-2.7-3.8-3.9-8.5-6.4-12.4c0.2-0.1,0.3-0.2,0.5-0.3c-0.1,0-0.2-0.1-0.3-0.1c-3.1,1.1-6.3,2.1-9.5,3.2
		c-29.5,11.4-58.5,24.1-88.4,33.9c-70,23-140.5,44.6-210.9,66.7c-3.1,1-6.4,1.9-9.6,1.7c-7.3-0.5-14.5-1.9-21.7-2.7
		c-55-6.1-110.1-11.9-165.1-18.2c-33.6-3.8-67.1-8.3-100.6-12.8c-42.7-5.7-85.4-11.6-128.1-17.6c-15.7-2.2-31.3-4.7-46.9-7.1
		C746.8,711.6,753.5,716.1,752.9,723.8z"/>
	<path class="st7" d="M747,715c1.3,3.2,2.8,6.4,4.2,9.5c0.6-0.2,1.1-0.4,1.7-0.7c0.6-7.7-6.1-12.2-8.5-18.6c-0.1,0-0.2,0-0.3,0
		C745.1,708.5,745.8,711.8,747,715z"/>
	<path class="st7" d="M1531.4,670.9c0.2-0.1,0.3-0.2,0.5-0.3c0,0,0.1-0.1,0.1-0.1c0.1-5.3,0.1-10.6-6.5-12.3
		c-0.2,0.1-0.3,0.2-0.5,0.3C1527.6,662.4,1528.7,667.1,1531.4,670.9z"/>
	<path class="st7" d="M2194.6,724.3c-0.4,0.2-0.8,0.3-1.1,0.5c0.1,0.2,0.2,0.3,0.2,0.5c8.3,2.2,16.4,5.7,24.9,6.5
		c27.4,2.8,54.9,4.4,82.3,7.1c55.8,5.5,111.5,11.3,167.2,17.2c37.9,4,75.8,8.4,113.7,12.8c24.7,2.8,49.4,6,74.1,8.8
		c2.8,0.3,5.9-0.2,8.7-1c70.5-20.6,140.9-41.3,211.4-62c1.6-0.5,3.3-0.8,4.7-1.5c30.9-14.2,61.6-28.5,92.5-42.8
		c-3.4-3.5-4.7-8.1-6.4-12.5c0.1,0,0.1-0.1,0.2-0.1c-0.1,0-0.1-0.1-0.2-0.1c-3.4,1.3-6.9,2.5-10.3,3.8
		c-31.6,12.1-62.8,25.6-94.9,36.2c-67.2,22.2-134.8,42.8-202.3,64c-3.4,1-7.1,2.1-10.6,1.8c-11.2-0.9-22.4-2.2-33.6-3.5
		c-51.1-5.7-102.1-11.3-153.1-17.3c-33.6-4-67.1-8.4-100.6-12.9c-42.3-5.7-84.7-11.5-127-17.4c-16-2.2-32.1-4.8-48.1-7.2
		c0.3,0.9,0.5,1.8,0.8,2.7C2190,713.2,2195.1,717.5,2194.6,724.3z"/>
	<path class="st7" d="M2973.2,670.4c0.2-0.1,0.5-0.2,0.7-0.3c0,0,0.1,0,0.1,0c-1.4-4.6-1.5-10.1-7-12.3c-0.1,0-0.1,0.1-0.2,0.1
		C2968.5,662.3,2969.8,666.9,2973.2,670.4z"/>
	<path class="st7" d="M2193.5,724.8c0.4-0.2,0.8-0.3,1.1-0.5c0.5-6.8-4.6-11.1-7.5-16.4c0.7,2.4,1.3,4.8,2.1,7.1
		C2190.4,718.3,2192,721.6,2193.5,724.8z"/>
	<path class="st7" d="M3634.5,722.9c0.8,0.1,1.5,0.2,2.3,0.3c16.6,7.4,34.6,6.5,52.1,8.3c67.2,6.6,134.6,11.4,201.7,19.4
		c68.8,8.2,137.6,16.2,206.4,23.9c6.9,0.8,13.2-1.1,19.6-3c64.5-19,129-0.2,193.6-19c3.9-1.2,11-6,15.8-4.7v-17.5
		c-1.7,0.5-9.8,4.8-11,5.2c-68.7,21.6-137.5,1.2-206,23.4c-12.2,4-23.9,4.1-36,2.8c-39.2-4.2-78.4-8.8-117.6-13.1
		c-21.4-2.4-42.9-4.2-64.3-7c-46.4-6.1-92.6-12.7-138.9-19c-41.3-5.7-82.7-11.3-124.1-16.9c0,0.1,0,0.2,0.1,0.2
		C3630.4,711.7,3635.9,716.3,3634.5,722.9z"/>
	<path class="st7" d="M4310.2,752.8c-64.6,18.8-129.1,0-193.6,19c-6.4,1.9-12.7,3.8-19.6,3c-68.8-7.7-137.6-15.7-206.4-23.9
		c-67.1-8-134.5-12.8-201.7-19.4c-17.5-1.8-35.5-0.9-52.1-8.3c-0.8-0.1-1.5-0.2-2.3-0.3c-0.1,0.7-0.3,1.3-0.6,2
		c1.2,0.6,2.4,1.2,3.4,1.8c12.6,5.2,25.9,5.3,39.2,6.4c33.8,2.8,67.5,6.1,101.2,9.2c24.8,2.3,49.6,4.1,74.4,6.8
		c45.2,5,90.3,10.5,135.5,15.8c31,3.7,61.9,7.4,92.9,11.1c13.5,1.6,26.5,1.8,40.2-2.3c67.2-20.4,138.7-0.2,205.3-25.2v-0.4
		C4321.2,746.8,4314.1,751.6,4310.2,752.8z"/>
	<path class="st7" d="M3633,722.6c0.5,0.1,1,0.2,1.5,0.3c1.4-6.6-4.2-11.1-6.4-16.6c0.9,3.5,1.7,7,2.7,10.6
		C3631.5,718.8,3632.3,720.7,3633,722.6z"/>
	<path class="st7" d="M3633,722.6c0.3,0.8,0.6,1.5,0.9,2.3c0.3-0.7,0.5-1.4,0.6-2C3634,722.8,3633.5,722.7,3633,722.6z"/>
	<path class="st4" d="M1899,381.8c10.8-8.9,21.7-17.8,31.8-27.4c9.5-9,18.9-10,29.9-4.4c0,0,0.1,0,0.1,0c-0.1,0-0.2-0.1-0.3-0.1
		c-19.4-12.1-19.2-12-36.6,3.3c-11.5,10.1-23.2,20-34.9,29.9c-8.8,7.4-9.4,10-3.4,19.3c23.7,36.7,47.5,73.2,70.7,110.3
		c4.6,7.3,9.4,9.8,18.1,6.9c45.8-15.4,92-29.7,138-44.2c13.8-4.3,13.5-4.5,15.1-19.4c6.4-57.2,11-114.6,17.2-171.8
		c1.1-9.9,2.1-19.8,2.6-29.8c0.3-7.1-2.4-11.8-8.2-15.8c-36.5-25.1-73-50.3-109.4-75.5C1971.3,122.7,1913,82.3,1854.5,42
		c-9.5-6.6-10.5-6.8-18.5,1.4c-47.7,48.4-97,95.2-145.5,142.9c-34,33.4-67.5,67.3-101.9,100.2c-11.3,10.8-22.5,21.7-34.2,32.2
		c-8.9,8-12.2,16.8-12.2,28.9c0.4,101.3,0.2,202.6,0.2,304c0,3.3,0.1,6.7-0.1,10c-0.3,6.7-2.9,10.9-10.5,9.8
		c-0.1-0.1-0.1-0.2-0.2-0.2c-3.5,6.5-10.6,7.9-16.5,10.8c-48.7,24.6-99.6,42.8-152.3,57c-45,12.1-89.6,25.9-134.3,39.5
		c-6.2,1.9-12.2,2.5-18.7,1.8c-81-9.8-162.1-19.3-243.2-28.2c-54.6-6-109.4-10.4-164.1-14.9c-13.2-1.1-26.7-1.2-39.6-5
		c-4.3-1.3-9.5-1.4-11.3-6.9c0,0,0,0,0,0c-0.6-0.1-1.2-0.2-1.8-0.3c-10.5,3.2-20-1.5-26.8-8c-29.8-28.5-59.4-57.4-87.4-87.7
		c-25.1-27.1-52-52.5-78-78.7c-2.6-2.5-5.9-3.3-9.3-3.8c27.3,29.2,55.6,57.5,82.4,87.2c12.1,13.4,25.1,25.7,37.4,38.9
		c20.1,21.4,39.7,43.2,60.7,63.6c3.5,3.4,7.6,5.3,12.4,5.9c32.4,3.6,64.6,8.8,97.2,11.6c34.8,2.9,69.6,6.1,104.4,9.3
		c32.5,3,65,5.6,97.5,8.7c34.8,3.3,69.6,6,104.4,9.4c24.2,2.4,48.4,4.2,72.6,6.4c6.4,0.6,12.5-1.6,18.6-3.5
		c66.8-21,134-40.5,200.8-61.4c16-5,30.7-12.9,45.9-19.7c15.5-7,31.2-13.5,46.8-20.2c15-6.5,22.9-15.9,22.7-34.3
		c-0.8-64.9-0.1-129.8-0.7-194.7c-0.3-34.6-1.9-69.2-2-103.9c0-11.3,3.5-19.6,11.8-27.1c46.5-41.4,92.2-83.8,138.1-125.8
		s92.2-83.8,137.9-126c12.7-11.8,14-12,28.3-3c85.2,53.6,170.5,107.1,255.4,161.1c6.2,3.9,12.5,7.6,18.6,11.7
		c5.6,3.8,7.5,8.7,6.6,15.4c-6.2,45.9-11.7,91.9-17.7,137.8c-2.5,18.8-4.7,37.7-7.2,56.5c-0.9,7.1-3.9,11.6-10.9,13.8
		c-44.8,14-89.8,27.6-134.7,41.4c-3.5,1.1-6.6,1.2-9.4,0.3c-0.3,0.1-0.5,0.2-0.8,0.2c-0.2-0.3-0.3-0.5-0.5-0.8
		c-2.4-1.2-4.6-3.2-6.5-6c-21-31.7-42.5-63-63-95c-3-4.7-4.6-8.1-4.7-10.9c-0.2-0.3-0.4-0.6-0.6-0.9c0.2-0.2,0.4-0.4,0.6-0.5
		C1891.2,388.9,1893.9,386,1899,381.8z"/>
	<path class="st4" d="M1975.6,505.9c44.9-13.8,89.9-27.4,134.7-41.4c7-2.2,10-6.7,10.9-13.8c2.5-18.8,4.7-37.7,7.2-56.5
		c6-45.9,11.5-91.9,17.7-137.8c0.9-6.7-1-11.6-6.6-15.4c-6.1-4.1-12.4-7.8-18.6-11.7c-84.9-54-170.2-107.5-255.4-161.1
		c-14.3-9-15.6-8.8-28.3,3c-45.7,42.2-92,84-137.9,126s-91.6,84.4-138.1,125.8c-8.3,7.5-11.8,15.8-11.8,27.1
		c0.1,34.7,1.7,69.3,2,103.9c0.6,64.9-0.1,129.8,0.7,194.7c0.2,18.4-7.7,27.8-22.7,34.3c-15.6,6.7-31.3,13.2-46.8,20.2
		c-15.2,6.8-29.9,14.7-45.9,19.7c-66.8,20.9-134,40.4-200.8,61.4c-6.1,1.9-12.2,4.1-18.6,3.5c-24.2-2.2-48.4-4-72.6-6.4
		c-34.8-3.4-69.6-6.1-104.4-9.4c-32.5-3.1-65-5.7-97.5-8.7c-34.8-3.2-69.6-6.4-104.4-9.3c-32.6-2.8-64.8-8-97.2-11.6
		c-4.8-0.6-8.9-2.5-12.4-5.9c-21-20.4-40.6-42.2-60.7-63.6c-12.3-13.2-25.3-25.5-37.4-38.9c-26.8-29.7-55.1-58-82.4-87.2
		c-0.9-0.1-1.8-0.2-2.7-0.3c0,0,0,0,0,0c0.5,0.8,0.9,1.8,1.6,2.5c24.3,25.7,48.5,51.3,72.8,76.9c14.2,15,28.5,29.8,42.7,44.8
		c21.5,22.7,42.9,45.5,64.3,68.3c3.4,3.7,7.1,5.3,12.1,5.9c21.4,2.4,42.8,5.5,64.2,8c17.5,2,35,3.7,52.5,5.3
		c29.7,2.8,59.4,5.4,89.2,8c40,3.5,80,7,120,10.5c29.8,2.6,59.5,5.3,89.3,7.9c17.6,1.5,35.2,2.3,52.6,4.6c9.9,1.3,19,0.5,28.4-2.4
		c55-16.9,110.2-33.4,165.2-50.4c20.3-6.2,40.9-11.6,60.3-20.8c21.7-10.2,43.8-19.5,65.8-29c8.7-3.8,16.6-8.4,23.1-15.4
		c3.2-3.5,4.9-6.7,4.8-11.4c-0.3-17.6-0.1-35.1-0.2-52.7c-0.2-24.4-0.4-48.7-0.7-73c-0.4-38.6-1-77.2-1.3-115.8
		c-0.2-25.7,0.1-51.3-0.1-77c0-4.7,1.3-7.8,5-11.1c20.4-18.1,40.5-36.6,60.6-55c32.8-30.1,65.6-60.3,98.5-90.4
		c38-34.8,76.1-69.6,114.2-104.3c6.8-6.2,13.8-12.2,20.9-18.5c98,61.8,195.4,123.2,293,184.7c-9.1,71.4-18.1,142.1-27.2,213.2
		c-50.5,15.5-100.7,30.8-151,46.3C1969,507.1,1972.1,507,1975.6,505.9z"/>
	<path class="st4" d="M1962,350.6c-0.4-0.2-0.8-0.4-1.2-0.6c0,0-0.1,0-0.1,0c-11-5.6-20.4-4.6-29.9,4.4c-10.1,9.6-21,18.5-31.8,27.4
		c-5.1,4.2-7.8,7.1-8.3,10.5c13.7-11.7,27.3-22.1,39.2-34.1c9.8-9.8,19.1-13,31.2-5.5c0.3,0.2,0.7,0.1,1,0.2c0,0,0,0,0,0
		c0,0-0.1,0-0.1-0.1C1962,352.1,1962,351.3,1962,350.6z"/>
	<path class="st4" d="M1958.4,499.6c1.9,2.9,4.1,4.9,6.5,6c-25-37.7-49.5-74.6-74.2-112c0.1,2.9,1.7,6.2,4.7,10.9
		C1915.9,436.6,1937.4,467.9,1958.4,499.6z"/>
	<path class="st4" d="M548.3,546.8c3.4,0.5,6.7,1.2,9.3,3.8c26,26.2,52.9,51.6,78,78.7c28,30.3,57.6,59.2,87.4,87.7
		c6.8,6.5,16.3,11.2,26.8,8c-14.6-2.6-26.8-9.1-37.6-20.4C661.9,652.3,610.7,600.8,559.8,549c-5.6-5.7-6.1-6.1-12.9-3.1
		c0.3,0.1,0.5,0.2,0.8,0.3C547.9,546.4,548.1,546.6,548.3,546.8z"/>
	<path class="st4" d="M548.3,546.8c-0.2-0.2-0.4-0.4-0.6-0.6c-0.3-0.1-0.5-0.2-0.8-0.3c-0.4,0.2-0.9,0.4-1.3,0.6v0c0,0,0,0,0,0
		C546.5,546.6,547.4,546.7,548.3,546.8z"/>
	<path class="st4" d="M1531.8,671.4c7.6,1.1,10.2-3.1,10.5-9.8c0.2-3.3,0.1-6.7,0.1-10c0-101.4,0.2-202.7-0.2-304
		c0-12.1,3.3-20.9,12.2-28.9c11.7-10.5,22.9-21.4,34.2-32.2c34.4-32.9,67.9-66.8,101.9-100.2c48.5-47.7,97.8-94.5,145.5-142.9
		c8-8.2,9-8,18.5-1.4c58.5,40.3,116.8,80.7,175.2,121.1c36.4,25.2,72.9,50.4,109.4,75.5c5.8,4,8.5,8.7,8.2,15.8
		c-0.5,10-1.5,19.9-2.6,29.8c-6.2,57.2-10.8,114.6-17.2,171.8c-1.6,14.9-1.3,15.1-15.1,19.4c-46,14.5-92.2,28.8-138,44.2
		c-8.7,2.9-13.5,0.4-18.1-6.9c-23.2-37.1-47-73.6-70.7-110.3c-6-9.3-5.4-11.9,3.4-19.3c11.7-9.9,23.4-19.8,34.9-29.9
		c17.4-15.3,17.2-15.4,36.6-3.3c0.1,0,0.2,0.1,0.3,0.1c0.4,0.1,0.8,0.3,1.2,0.5c0-0.7,0-1.3,0-2c-6.8-4.7-13.5-9.3-20.4-13.9
		c-22.3,19.2-44,37.9-65.8,56.7c29.1,45.2,57.7,89.7,85.7,133.3c1.9,0.2,2.2,0.3,2.5,0.2c53.3-16.9,106.6-33.8,159.9-50.6
		c4.3-1.3,5.5-3.9,5.9-8c3.4-36.7,6.9-73.5,10.5-110.3c2.3-23.5,4.8-47,7.1-70.5c1.4-13.8,2.5-27.7,3.7-41.8
		c-102.3-70.8-204.2-141.2-306.3-211.8c-2.2,2-4,3.5-5.6,5.1c-97.4,95.4-194.8,190.8-292.3,286c-4.8,4.6-6.5,9.2-6.5,15.7
		c0,106-0.2,212-0.3,318c0,3.6,0,7.2,0,10.9c-3.2,1.2-5.6,2.1-8.1,3c0,0-0.1,0-0.1,0c-0.1,0.2-0.2,0.4-0.3,0.5
		C1531.7,671.2,1531.7,671.3,1531.8,671.4z"/>
	<path class="st4" d="M1960.8,350c0.4,0.2,0.8,0.4,1.2,0.6c0,0,0,0,0,0C1961.6,350.4,1961.2,350.2,1960.8,350z"/>
	<path class="st4" d="M762.9,732.2c12.9,3.8,26.4,3.9,39.6,5c54.7,4.5,109.5,8.9,164.1,14.9c81.1,8.9,162.2,18.4,243.2,28.2
		c6.5,0.7,12.5,0.1,18.7-1.8c44.7-13.6,89.3-27.4,134.3-39.5c52.7-14.2,103.6-32.4,152.3-57c5.9-2.9,13-4.3,16.5-10.8
		c-0.1-0.1-0.1-0.2-0.2-0.3c-2.4,1.2-4.8,2.7-7.3,3.8c-23.5,10.8-47.1,21.7-70.7,32.4c-6.9,3.1-14,6-21.3,8.2
		c-69.8,20.7-139.6,41.2-209.4,61.7c-2.8,0.8-5.9,1-8.8,0.7c-25.1-2.9-50.1-6-75.1-8.9c-37.6-4.3-75.1-8.7-112.7-12.7
		c-55.7-5.9-111.4-11.7-167.2-17.2c-27.4-2.7-54.9-4.3-82.3-7.1c-8.5-0.8-16.6-4.3-24.9-6.5c0,0-0.1,0-0.1,0c0,0,0,0,0,0
		C753.4,730.8,758.6,730.9,762.9,732.2z"/>
	<path class="st4" d="M1531.9,670.6c-0.2,0.1-0.3,0.2-0.5,0.3c0.1,0.1,0.1,0.2,0.2,0.3C1531.7,671,1531.8,670.8,1531.9,670.6z"/>
	<path class="st8" d="M3398.8,349c2.3,1.3,5,1.7,7.4,2.9c0.7,0.1,1.4,0.7,2,0.7c0-0.2,0-0.4,0.1-0.6c-0.1-0.4-0.2-0.8-0.2-1.2
		c-0.3-0.3-0.6-0.6-0.9-1c-6.6,1.8-10.6-3-15.1-6c-6.2-4.2-11.5-4.2-17.1,0.9c-15.4,13.8-31.3,26.9-46.9,40.4
		c-5.5,4.8-6.7,8.8-2.5,15.3c24.1,37.2,48.2,74.4,71.9,111.9c4.9,7.8,9.9,9.8,18.9,6.8c45.9-15,92-29.7,138.1-44
		c10-3.1,13.9-8.6,14.7-18.4c2.9-37.2,6.9-74.2,10.6-111.3c3-30.1,5.4-60.3,9.1-90.4c0.8-6.8-1-11.3-6.7-15.2
		c-54.9-37.8-109.7-75.7-164.6-113.6c-40.6-28-80.9-56.4-121.8-84c-9.6-6.5-9.5-6.3-18.4,1.8c-36.1,33.2-69.4,69.2-105.1,102.7
		c-32.1,30.1-61.9,62.5-94.3,92.3c-28.7,26.5-55.4,54.9-83.6,81.8c-7.1,6.7-10,13.9-9.9,23.8c0.3,101.7,0.2,203.3,0.2,305
		c0,4,0.2,8-0.3,12c-0.8,5.9-3.5,10.1-10.3,9.7c-0.1-0.1-0.2-0.2-0.4-0.3c-1.5,4.3-5.7,5.3-9.2,7.1c-59.3,31.1-122.8,51-187.1,68.5
		c-35.6,9.7-71,20.5-106.3,31.3c-9.7,3-19,2.2-28.6,1.1c-77.6-9.3-155.3-18.4-233-27.1c-47.2-5.3-94.7-8.7-142.1-12.9
		c-20.5-1.8-41.2-2.1-61.4-6.8c-4.7-0.9-10.2-1.1-12.3-6.9c-0.4-0.1-0.7-0.1-1.1-0.2c-10.9,3.9-20.8-0.9-27.9-7.6
		c-29.8-28.5-59.4-57.4-87.4-87.7c-25.1-27.1-52-52.5-78-78.7c-2.3-2.9-5.5-3.7-8.8-4.2c27.2,29.1,55.5,57.3,82.2,86.9
		c12.1,13.4,25.1,25.7,37.4,38.9c20.1,21.4,39.7,43.2,60.7,63.6c3.5,3.4,7.6,5.3,12.4,5.9c33.1,3.6,65.9,9,99.1,11.7
		c33.8,2.8,67.6,5.9,101.4,9.1c25.8,2.4,51.7,4.3,77.6,6.8c34.1,3.3,68.3,6,102.4,9.2c31.8,3,63.6,5.8,95.5,8.5
		c10.8,0.9,20.8-4.4,30.9-7.6c62.1-19.2,124.5-37.3,186.4-56.9c22.9-7.3,43.9-19.2,66-28.7c10.7-4.6,21.9-8.1,32.1-13.9
		c12.5-7,19.8-16,19.3-31.8c-1.1-31,1-62-0.6-93c-3.5-69-0.4-137.9-1.9-206.8c-0.2-10.5,2.9-18.1,10.7-25.3
		c37.1-33.9,74.3-67.7,111.4-101.7c26.3-24.1,52.6-48.1,78.8-72.2c30.7-28.1,61.5-56.1,92.2-84.2c5.8-5.3,11.1-4.3,17.1-0.5
		c35.3,22.1,70.6,44.3,105.8,66.6c55.2,34.9,110.6,69.5,165.7,104.6c6.6,4.2,10.4,6.9,12.3,10.4c0,0,0,0,0,0c0,0,0,0,0,0
		c2.1,3.8,1.9,8.5,0.7,17.2c-8.1,61.1-15.9,122.2-23.4,183.4c-1.6,13-3.2,14.8-15.6,18.6c-42.6,13.2-85.3,26.4-128.1,39.1
		c-12.4,3.7-15,2.9-21.6-7.7c-19.7-31.3-40.9-61.6-61.2-92.6c-7.6-11.6-7.5-12.5,2.6-21.5c11.4-10.2,23.5-19.7,34.8-30
		c3.7-3.4,7.4-5.6,11.2-6.5c0.1-0.1,0.2-0.1,0.3-0.2c0.1,0,0.2,0.1,0.3,0.1C3389.6,345.6,3394,346.4,3398.8,349z"/>
	<path class="st8" d="M3338.8,383c-10.1,9-10.2,9.9-2.6,21.5c20.3,31,41.5,61.3,61.2,92.6c6.6,10.6,9.2,11.4,21.6,7.7
		c42.8-12.7,85.5-25.9,128.1-39.1c12.4-3.8,14-5.6,15.6-18.6c7.5-61.2,15.3-122.3,23.4-183.4c1.2-8.7,1.4-13.4-0.7-17.2
		c-9.1,71.5-18.2,142.5-27.2,213.3c-51.3,15.7-101.4,31-152,46.5c-24.9-38.8-50.9-75.6-75-114c18.5-15.8,36.1-30.8,53.6-45.8
		c-3.8,0.9-7.5,3.1-11.2,6.5C3362.3,363.3,3350.2,372.8,3338.8,383z"/>
	<path class="st8" d="M3573.1,236.1c-55.1-35.1-110.5-69.7-165.7-104.6c-35.2-22.3-70.5-44.5-105.8-66.6c-6-3.8-11.3-4.8-17.1,0.5
		c-30.7,28.1-61.5,56.1-92.2,84.2c-26.2,24.1-52.5,48.1-78.8,72.2c-37.1,34-74.3,67.8-111.4,101.7c-7.8,7.2-10.9,14.8-10.7,25.3
		c1.5,68.9-1.6,137.8,1.9,206.8c1.6,31-0.5,62,0.6,93c0.5,15.8-6.8,24.8-19.3,31.8c-10.2,5.8-21.4,9.3-32.1,13.9
		c-22.1,9.5-43.1,21.4-66,28.7c-61.9,19.6-124.3,37.7-186.4,56.9c-10.1,3.2-20.1,8.5-30.9,7.6c-31.9-2.7-63.7-5.5-95.5-8.5
		c-34.1-3.2-68.3-5.9-102.4-9.2c-25.9-2.5-51.8-4.4-77.6-6.8c-33.8-3.2-67.6-6.3-101.4-9.1c-33.2-2.7-66-8.1-99.1-11.7
		c-4.8-0.6-8.9-2.5-12.4-5.9c-21-20.4-40.6-42.2-60.7-63.6c-12.3-13.2-25.3-25.5-37.4-38.9c-26.7-29.6-54.9-57.8-82.2-86.9
		c-0.9-0.1-1.9-0.2-2.8-0.4c0.4,0.8,0.8,1.6,1.5,2.3c24.3,25.6,48.5,51.2,72.8,76.8c14.2,15,28.5,29.8,42.7,44.8
		c21.5,22.7,42.9,45.5,64.3,68.3c3.4,3.6,7.1,5.3,12.1,5.9c21.4,2.4,42.8,5.5,64.2,8c17.5,2,35,3.7,52.5,5.3
		c29.7,2.8,59.5,5.4,89.2,8c40,3.6,80,7,120,10.5c30,2.6,60.1,5.4,90.2,8c17.5,1.5,35.1,2.4,52.6,4.5c7.8,0.9,15.1,1.1,22.6-1.2
		c51.8-15.9,103.8-31.6,155.6-47.5c21.3-6.5,42.8-12.6,63.5-20.7c26-10.2,51.1-22.4,76.8-33.5c9.1-3.9,17.1-9,23.4-16.5
		c2-2.4,3.8-5.7,3.9-8.6c0.6-14.3,1-28.6,0.8-42.9c-0.5-38.3-1.5-76.5-2-114.8c-0.3-24.3,0-48.7-0.1-73c-0.1-29.6-0.4-59.3-0.6-88.9
		c-0.1-3.6-0.4-7,2.9-10c23.2-20.9,46.2-42.1,69.3-63.2c25.3-23.1,50.7-46,76-69.1c17.7-16.1,35.3-32.2,53-48.4
		c21.3-19.5,42.6-39.1,64-58.6c11-10,22.1-20,33.4-30.2c98,61.7,195.3,123.1,293.1,184.7C3583.5,243,3579.7,240.3,3573.1,236.1z"/>
	<polygon class="st8" points="3407.6,348.6 3407.6,348.6 3407.6,348.6 	"/>
	<path class="st8" d="M3406.2,351.9c-2.4-1.2-5.1-1.6-7.4-2.9c-4.8-2.6-9.2-3.4-13.4-2.6c7.9,2.9,15.2,5.5,22.6,8.2c0,0,0,0,0,0
		c0.1-0.7,0.1-1.3,0.2-2C3407.6,352.6,3406.9,352,3406.2,351.9z"/>
	<path class="st8" d="M3407.6,348.6c0.4,0.4,0.8,0.8,1.2,1.3C3408.5,349.4,3408.2,348.9,3407.6,348.6z"/>
	<path class="st8" d="M3407.2,349.8c0.3,0.3,0.6,0.6,0.9,1c-0.1-0.5-0.2-1.1-0.4-1.7c-0.1,0.2-0.2,0.4-0.5,0.4c0,0,0,0,0,0
		C3407.2,349.6,3407.2,349.7,3407.2,349.8C3407.2,349.8,3407.2,349.8,3407.2,349.8z"/>
	<path class="st8" d="M2973.7,671c0.1,0.1,0.2,0.2,0.4,0.3c6.8,0.4,9.5-3.8,10.3-9.7c0.5-4,0.3-8,0.3-12c0-101.7,0.1-203.3-0.2-305
		c-0.1-9.9,2.8-17.1,9.9-23.8c28.2-26.9,54.9-55.3,83.6-81.8c32.4-29.8,62.2-62.2,94.3-92.3c35.7-33.5,69-69.5,105.1-102.7
		c8.9-8.1,8.8-8.3,18.4-1.8c40.9,27.6,81.2,56,121.8,84c54.9,37.9,109.7,75.8,164.6,113.6c5.7,3.9,7.5,8.4,6.7,15.2
		c-3.7,30.1-6.1,60.3-9.1,90.4c-3.7,37.1-7.7,74.1-10.6,111.3c-0.8,9.8-4.7,15.3-14.7,18.4c-46.1,14.3-92.2,29-138.1,44
		c-9,3-14,1-18.9-6.8c-23.7-37.5-47.8-74.7-71.9-111.9c-4.2-6.5-3-10.5,2.5-15.3c15.6-13.5,31.5-26.6,46.9-40.4
		c5.6-5.1,10.9-5.1,17.1-0.9c4.5,3,8.5,7.8,15.1,6c-0.1-0.1-0.1-0.1-0.2-0.2c-0.1-0.1-0.3-0.3-0.4-0.5c-8-4.7-16-9.3-24.5-14.2
		c-21.7,18.7-43.3,37.3-65.3,56.2c29,45.3,57.6,89.7,86.4,134.5c56.2-17.9,111.6-35.6,166.7-53.2c7.5-77.1,15-152.9,22.4-228.8
		c-102.4-70.7-204.2-141.2-306.4-211.8c-1.9,1.7-3.4,2.8-4.8,4.2c-97.9,95.9-195.7,191.8-293.7,287.5c-4.2,4.1-5.8,8.3-5.7,14
		c0.2,22.3,0,44.7,0,67c-0.2,84.7-0.3,169.3-0.4,254c0,5.7-0.2,10.6-7.3,11.6c0,0,0,0,0,0C2973.9,670.4,2973.8,670.7,2973.7,671z"/>
	<path class="st8" d="M3407,349.6c0.1,0.1,0.1,0.1,0.2,0.2c0,0,0,0,0,0c0-0.1,0-0.2,0-0.3c-0.2-0.1-0.4-0.2-0.6-0.3
		C3406.7,349.3,3406.9,349.5,3407,349.6z"/>
	<path class="st8" d="M1990.5,546.9c3.3,0.5,6.5,1.4,8.8,4.2c26,26.2,52.9,51.6,78,78.7c28,30.3,57.6,59.2,87.4,87.7
		c7.1,6.7,17,11.5,27.9,7.6c-15-2.5-27.4-9-38.4-20.7c-50.3-52.3-101.5-103.8-152.4-155.6c-5.7-5.7-6.1-6.1-12.9-3.1
		c0.3,0.1,0.5,0.2,0.8,0.3C1990,546.3,1990.2,546.6,1990.5,546.9z"/>
	<path class="st8" d="M1989.7,546c-0.3-0.1-0.5-0.2-0.8-0.3c-0.4,0.2-0.9,0.4-1.3,0.6c0,0.1,0.1,0.1,0.1,0.2
		c0.9,0.1,1.9,0.2,2.8,0.4C1990.2,546.6,1990,546.3,1989.7,546z"/>
	<path class="st8" d="M2206,732.2c20.2,4.7,40.9,5,61.4,6.8c47.4,4.2,94.9,7.6,142.1,12.9c77.7,8.7,155.4,17.8,233,27.1
		c9.6,1.1,18.9,1.9,28.6-1.1c35.3-10.8,70.7-21.6,106.3-31.3c64.3-17.5,127.8-37.4,187.1-68.5c3.6-1.8,7.8-2.9,9.2-7.1
		c-0.2-0.2-0.4-0.4-0.6-0.5c-30.9,14.3-61.6,28.6-92.5,42.8c-1.4,0.7-3.1,1-4.7,1.5c-70.5,20.7-140.9,41.4-211.4,62
		c-2.8,0.8-5.9,1.3-8.7,1c-24.7-2.8-49.4-6-74.1-8.8c-37.9-4.4-75.8-8.8-113.7-12.8c-55.7-5.9-111.4-11.7-167.2-17.2
		c-27.4-2.7-54.9-4.3-82.3-7.1c-8.5-0.8-16.6-4.3-24.9-6.5C2195.8,731.1,2201.3,731.3,2206,732.2z"/>
	<path class="st8" d="M2973.7,671c0.1-0.3,0.2-0.6,0.3-0.9c0,0,0,0,0,0c0,0-0.1,0-0.1,0c-0.2,0.1-0.5,0.2-0.7,0.3
		C2973.4,670.6,2973.6,670.8,2973.7,671z"/>
	<path class="st9" d="M520.9,351c0,0.1,0,0.1,0,0.2c1.3,0.8,2.5,1.8,4.2,1.2c0-0.4-0.1-0.7-0.2-1C523.5,352,522.2,351.6,520.9,351z"
		/>
	<path class="st9" d="M525.1,352.4c-1.7,0.6-3-0.3-4.2-1.2c-0.1,0.5-0.4,1-0.9,1.6c0,0,0,0,0,0c2.8,1.4,5.6,2.8,10,5.1
		c-1.1-3.1-1.6-4.2-2-5.3c-0.8-0.6-1.5-1.4-2.2-2l0.1,0.3c-0.3,0.2-0.6,0.4-1,0.5C525,351.7,525.1,352,525.1,352.4z"/>
	<path class="st9" d="M520.9,351c1.3,0.6,2.6,0.9,4.1,0.4c-0.1-0.3-0.2-0.6-0.4-0.8c-0.1-0.1-0.2-0.2-0.2-0.3
		c-1.4-0.5-2.8-1.1-4.3-1.7c0,0,0,0,0,0C520.6,349.4,521,350.2,520.9,351z"/>
	<path class="st9" d="M524.5,350.6c0.2,0.2,0.3,0.5,0.4,0.8c0.3-0.1,0.6-0.3,1-0.5c-0.6-0.2-1.1-0.4-1.6-0.6
		C524.3,350.4,524.4,350.5,524.5,350.6z"/>
	<path class="st9" d="M520.9,351c-0.3-0.1-0.6-0.3-0.9-0.4c0,0,0,0.1,0,0.1c0.3,0.2,0.6,0.3,0.9,0.5
		C520.9,351.2,520.9,351.1,520.9,351z"/>
	<path class="st9" d="M520,350.7c0,0.7,0,1.4,0,2.1c0.5-0.5,0.8-1,0.9-1.6C520.6,351.1,520.3,350.9,520,350.7z"/>
	<path class="st9" d="M520,348.6c0,0.7,0,1.4,0,2c0.3,0.1,0.6,0.3,0.9,0.4C521,350.2,520.6,349.4,520,348.6z"/>
	<path class="st9" d="M1963,351.1c0,0.1,0,0.1,0,0.2c1.2,0.8,2.4,1.6,4.1,1c0-0.3-0.1-0.6-0.2-0.8
		C1965.5,351.9,1964.2,351.6,1963,351.1z"/>
	<path class="st9" d="M1966.9,351.4c0.1,0.3,0.1,0.5,0.2,0.8c-1.7,0.6-2.9-0.2-4.1-1c-0.1,0.5-0.3,1.1-0.8,1.6
		c2.8,1.4,5.5,2.8,9.9,5c-1.1-3.1-1.6-4.2-2-5.3c-0.8-0.6-1.5-1.3-2.2-2l0.1,0.3c0,0,0,0,0,0v0
		C1967.6,351.1,1967.3,351.3,1966.9,351.4z"/>
	<path class="st9" d="M1963,351.1c1.3,0.5,2.5,0.9,4,0.3c-0.1-0.4-0.2-0.7-0.4-1c0,0,0,0,0-0.1c-1.5-0.6-2.9-1.1-4.5-1.7
		c0,0,0,0,0,0c0,0,0.1,0,0.1,0.1C1962.7,349.5,1963,350.3,1963,351.1z"/>
	<path class="st9" d="M1966.5,350.4c0.2,0.3,0.4,0.6,0.4,1c0.3-0.1,0.6-0.3,1-0.5v0C1967.4,350.7,1966.9,350.5,1966.5,350.4
		C1966.5,350.4,1966.5,350.4,1966.5,350.4z"/>
	<path class="st9" d="M1962.1,350.6c0.3,0.2,0.6,0.4,0.9,0.6c0-0.1,0-0.1,0-0.2C1962.7,350.9,1962.4,350.8,1962.1,350.6z"/>
	<path class="st9" d="M1962.1,350.6C1962.1,350.6,1962,350.6,1962.1,350.6c-0.1,0.7-0.1,1.4-0.1,2.2c0,0,0.1,0,0.1,0.1
		c0.5-0.5,0.8-1.1,0.8-1.6C1962.7,351,1962.4,350.8,1962.1,350.6z"/>
	<path class="st9" d="M1962.1,350.6c0.3,0.1,0.6,0.3,0.9,0.4c0.1-0.8-0.3-1.6-0.9-2.4c0,0-0.1,0-0.1-0.1
		C1962,349.3,1962,349.9,1962.1,350.6C1962,350.6,1962.1,350.6,1962.1,350.6z"/>
	<path class="st9" d="M1962,350.6C1962,350.6,1962.1,350.6,1962,350.6C1962.1,350.6,1962,350.6,1962,350.6
		C1962,350.6,1962,350.6,1962,350.6z"/>
	<path class="st9" d="M3408,354.6c0,0,0,0.1,0,0.1c1.3,0.6,2.7,1.1,4,1.6c0-1.1,0-2.1,0-3.2c-0.9-0.3-1.8-0.5-2.7-0.8
		C3409.1,353.2,3408.7,353.9,3408,354.6z"/>
	<path class="st9" d="M3410.7,351.8c0.4,0.4,0.9,0.9,1.3,1.3C3411.6,352.4,3411.2,352,3410.7,351.8z"/>
	<path class="st9" d="M3408.2,352.6c0.3,0,0.5-0.1,0.8-0.4c-0.3-0.1-0.5-0.1-0.8-0.2C3408.3,352.2,3408.3,352.4,3408.2,352.6z"/>
	<path class="st9" d="M3409.1,352.2c-0.3,0.3-0.6,0.4-0.8,0.4c-0.1,0.7-0.1,1.3-0.2,2c0.7-0.7,1.1-1.4,1.3-2.3
		C3409.2,352.3,3409.1,352.2,3409.1,352.2z"/>
	<path class="st5" d="M3410.7,351.8c-0.6-0.6-1.3-1.3-1.9-1.9c0.3,0.6,0.4,1.2,0.5,1.9C3409.8,351.6,3410.2,351.6,3410.7,351.8z"/>
	<path class="st5" d="M3407.6,348.6c0,0.2,0.1,0.3,0.1,0.5C3407.7,348.9,3407.7,348.8,3407.6,348.6z"/>
	<polygon class="st5" points="3407.6,348.6 3407.6,348.6 3407.6,348.6 	"/>
	<path class="st5" d="M3408.8,351.8c-0.2-0.4-0.5-0.7-0.8-1c0.1,0.4,0.2,0.8,0.2,1.2C3408.5,351.9,3408.7,351.9,3408.8,351.8z"/>
	<path class="st5" d="M3408.8,351.8c0.1,0,0.3-0.1,0.4-0.1c-0.1-0.7-0.2-1.3-0.5-1.9c-0.4-0.4-0.8-0.8-1.2-1.3c0,0,0,0,0,0
		c0,0,0,0,0,0c0.1,0.2,0.1,0.3,0.1,0.5c0.1,0.6,0.3,1.1,0.4,1.7C3408.3,351.1,3408.6,351.4,3408.8,351.8z"/>
	<path class="st5" d="M3409.3,351.7c0,0.2,0,0.3,0,0.5c0,0,0,0.1,0,0.1c0.9,0.3,1.8,0.5,2.7,0.8c-0.5-0.4-0.9-0.9-1.3-1.3
		C3410.2,351.6,3409.8,351.6,3409.3,351.7z"/>
	<path class="st5" d="M3409.1,352.2C3409.1,352.2,3409.1,352.2,3409.1,352.2c0-0.2-0.1-0.3-0.2-0.4c-0.2,0.1-0.4,0.1-0.5,0.2
		C3408.5,352.1,3408.8,352.2,3409.1,352.2z"/>
	<path class="st5" d="M3409.1,352.2c0.1,0,0.1,0,0.2,0.1c0,0,0-0.1,0-0.1c0-0.2,0-0.3,0-0.5c-0.1,0-0.3,0.1-0.4,0.1
		C3408.9,351.9,3409,352.1,3409.1,352.2C3409.1,352.2,3409.1,352.2,3409.1,352.2z"/>
	<path class="st2" d="M525.9,350.6c0.7,0.7,1.4,1.3,2.2,2C527.4,351.9,526.6,351.3,525.9,350.6z"/>
	<path class="st6" d="M1967.9,350.6c0.7,0.7,1.4,1.3,2.2,2C1969.4,351.9,1968.6,351.3,1967.9,350.6z"/>
</g>
</svg>
