<?xml version="1.0" encoding="utf-8"?>
<!-- Generator: Adobe Illustrator 21.1.0, SVG Export Plug-In . SVG Version: 6.00 Build 0)  -->
<svg version="1.1" id="Layer_1" xmlns="http://www.w3.org/2000/svg" xmlns:xlink="http://www.w3.org/1999/xlink" x="0px" y="0px"
	 viewBox="0 0 545 534.2" style="enable-background:new 0 0 545 534.2;" xml:space="preserve">
<style type="text/css">
	.st0{fill:#DCDCDC;}
	.st1{fill:#949495;}
	.st2{fill:#EDEDEE;}
	.st3{fill:#7F7F7F;}
	.st4{fill:#ECEBEE;}
	.st5{fill:#DADADB;}
	.st6{fill:#959597;}
	.st7{fill:#EBEBEC;}
	.st8{fill:#818183;}
	.st9{fill:#A09CA6;}
	.st10{fill:#494949;}
	.st11{fill:#FEFEFE;}
	.st12{fill:#E7E7E7;}
</style>
<g>
	<path class="st0" d="M139.2,349c1,1.4,1.9,2.9,2.9,4.3c0,1.5,1.1,1.4,2.1,1.4c0.5,0.3,1,0.5,1.5,0.8c0.7,1,1.3,2.3,2.2,3.1
		c6.1,4.8,16.3,5.5,22.9,1.5c6.2-3.8,12-8.1,17.1-13.3c14.8-15,29.8-29.8,44.7-44.7c24.4-24.4,48.8-48.8,73.2-73.2
		c9.2-9.2,18.4-18.4,27.6-27.6c11.8-11.8,23.7-23.7,35.5-35.5c16-16,32-32,48-48c0.8-0.8,1.6-1.8,2.3-2.7c1.4-0.7,2.8-1.4,4.1-2.2
		c1.2,1.6,2.3,3.2,3.5,4.7c-0.4,0.8-0.8,1.6-1.3,2.4c-1,0.8-2.2,1.4-3.1,2.3c-9.2,9.2-18.4,18.3-27.6,27.6c-2.2,2.2-4.1,4.6-6.2,6.9
		c-2.9,2.9-5.7,5.7-8.6,8.6c-0.7,0.5-1.5,0.8-2,1.4c-6.6,6.5-13.1,13-19.6,19.6c-50.4,50.4-100.8,100.8-151.2,151.1
		c-39.4,39.4-78.7,78.7-118.1,118.1c-7,7-14,14.2-21.5,20.7c-7,6.1-15.6,9.2-25,9.8c-4.4,0.3-8.3,2.1-11.8,4.9
		c-0.4,0.3-0.4,1-0.6,1.5c0,0,0,0,0,0c-0.5,0.2-1,0.5-1.5,0.7c0,0,0,0,0,0c-0.6,0.3-1.4,0.4-1.9,0.9c-6.3,5.5-7.1,15.4-2.2,22.2
		c3.4,4.7,12.4,8.8,18.5,5.2c-12.9-0.5-18.4-5-19-15.9c1.9,0,3.7,0,5.4,0c0.8,1.5,1.3,2.8,2.1,3.9c0.3,0.4,1.1,0.5,1.6,0.7
		c0,0-0.1,0.1-0.1,0.1c0.6,1.6,1.2,3.2,1.8,4.8c0.9-0.7,1.7-1.3,2.4-1.8c1.9,0,3.7,0,5.6-0.1c0.3,0.2,0.6,0.4,0.9,0.7
		c0.2-0.4,0.3-0.9,0.5-1.3l0,0c4.7,0.5,4.1-4,5.8-6.3c2.2,0,4.3,0,6.5,0c0,0.5,0,0.9,0,1.4c0,1.7,0,3.4,0,5c0,0.7,0,1.4,0,2.1
		c-0.6,0.5-1.4,0.9-1.7,1.5c-1,2-1.9,4.1-2.8,6.3c-0.3,0.7-0.3,1.6-0.5,2.3c-2.3,2-4.6,4.1-7,6.1c-0.1,0.1-0.6-0.2-1-0.3
		c-1.6,0.1-3.1,0-4.7,0.2c-5.9,0.9-11.2-0.7-15.9-3.9c-7.7-5.2-11.2-12.6-10.4-21.9c0.2-2.2-0.4-3.8-1.9-5.4c-5-5.5-8-11.9-8.1-19.4
		c0,0,0,0.1,0,0.1c0.2,0,0.5,0,0.7,0c1.9,0,1.5,1.7,1.7,2.6c0.8,6,4.7,9.8,9,13.4c1.6,1.4,2.5,1.5,4-0.4c2.3-2.8,5.1-5.2,7.7-7.8
		c0.6-0.6,1-1.4,1.6-2.2c0,0,0,0,0,0c4.2-1.1,8.4-2.2,12.6-3.5c2.1-0.7,4.2-1.7,6.1-2.7c8.2-4.2,14.7-10.6,21.4-16.6
		c10.1-8.9,19.8-18.3,29.7-27.4c6.2-5.8,12.5-11.5,18.7-17.2c2.1-1.9,4.3-3.7,6.3-5.8c2.8-2.9,5.8-5.7,7.9-9.1c4.2-6.8,8-14,9.3-22
		c0.8-4.5,0.7-9.1,0.9-13.7c0-0.5-0.9-1.1-1.4-1.6c0-0.5,0-0.9,0-1.4c1.1-0.8,1.2-1.6-0.2-2.1c-0.2-0.6-0.4-1.1-0.6-1.7
		c-2.9-10.6-8.9-18.8-19.1-23.4c-11.7-5.1-25.5-2.6-34.8,6.9c-10.7,11-11.1,27.1-4.3,37.8c0.3,0.4,0.4,1,0.8,1.7
		c-8.8-2.9-19.4-14.3-21.6-28.6c0.7-1.5,1.4-3.1,2.1-4.6c2.4-5.4,6.1-9.9,10.2-14.2c3.9-4.1,8.8-6.6,13.9-8.4
		c8.6-3.1,17.5-3.2,26-0.9c2.6-2.7,5-5.1,7.3-7.7c4.6-5.2,10.4-8.2,16.9-9.9c3.5-0.9,7.2-1.2,10.7,0.4c-0.3,0.2-0.6,0.5-0.9,0.5
		c-13.6,2.2-22.3,10.8-29.7,22.3c3.8,1.6,7.1,3.1,10.5,4.4c2.7,0.9,5.5,1.5,8.2,2.2c0.6,1.4,1.2,2.9,1.8,4.3c0.5,0.5,0.9,1,1.4,1.5
		c0.2,0.7,0.5,1.4,0.7,2.1C137.3,348.7,138.3,348.8,139.2,349z"/>
	<path class="st1" d="M30.5,492.2c0.2-0.5,0.2-1.2,0.6-1.5c3.4-2.8,7.4-4.6,11.8-4.9c9.4-0.6,17.9-3.8,25-9.8
		c7.5-6.5,14.5-13.6,21.5-20.7c39.4-39.3,78.7-78.7,118.1-118.1c50.4-50.4,100.8-100.8,151.2-151.1c6.5-6.5,13.1-13.1,19.6-19.6
		c0.6-0.6,1.3-0.9,2-1.4c0.9,0.8,1.9,1.6,2.8,2.3c-0.2,0.1-0.5,0.1-0.7,0.2c0,1.1,0.1,2.2,0.1,3.2c-8.2,8.3-16.4,16.7-24.5,25
		c-3.5,3.6-7,7.1-10.5,10.7c-4.6,4.8-9.2,9.6-13.8,14.4c-2.9,2.9-6,5.7-8.9,8.5c-0.7,0.6-1.2,1.5-1.7,2.2c-2.8-0.1-2.2,2.6-3.4,3.9
		c-4.4,0.8-4.4,0.8-4.7,4.2c-6.3,6.3-12.7,12.7-19,19c-0.5,0.5-0.6,1.3-0.8,1.9c-0.9,1.1-1.8,2.1-2.8,3.2c-0.6,0.3-1.3,0.7-1.9,1
		c-2.5-0.3-2.9,1-2.3,3.1c-0.4,0.1-0.8,0.3-1.1,0.4c-0.3,0.1-0.7,0.1-1,0.2c-0.3,0.1-0.7,0.2-1,0.3c-0.3,1.2-0.5,2.4-0.8,3.6
		c-0.9,0.5-2,0.8-2.7,1.5c-11.8,11.9-23.6,23.9-35.3,35.9c-7.9,8.1-15.8,16.3-23.8,24.4c-4.8,4.8-9.8,9.4-14.6,14.2
		c-1.8,1.7-3.5,3.6-5.3,5.3c-4.1,4.1-5,10.7-2.1,15.8c0.6,1,1,2.1,1.5,3.2c-7.8-0.3-8.1-0.3-10.8,1.3c14.5-0.2,23.5,11.1,23.6,22.8
		c0,6.3-2.2,11.9-6.8,16.4c-8,7.8-17.5,7.8-27.8,4.1c3.5,5.7,9.6,9.5,15.6,10.1c16.5,1.6,29.1-11.5,29.2-26.5
		c-1.9-5,1.2-8.1,3.9-11.6c4.7-6.3,8.5-13.1,7.7-21.4c0-0.5,0.4-1,0.6-1.5c1.9,5.1,2.9,10.5,0.7,15.6c-1.6,3.8-3.7,7.4-6.2,10.7
		c-1.5,2-2.3,3.8-1.7,6.2c3,12.6-1.8,22.9-11.2,30.2c-11.5,8.9-25.7,10.3-38.5,0c-7.3-5.9-11.1-13.3-11.6-22.8
		c-0.3-5,0.5-9.4,2.4-13.9c0.5-1.1,1.4-2.1,2.1-3.2c-0.5,2.3-1,4.5-1.6,7.3c3.1,0,5.5,0,8,0c-0.2,4.5,2,7.8,5.7,10.2
		c0.3,0.2,1.1-0.2,1.6-0.3c0.2-0.1,0.5-0.2,0.7-0.2c6.6,1.8,8.6,1.8,12.7-4.5c0.4-0.6,0.7-1.2,1-1.9c1.6-0.4,1.7-1.1,0.6-2.2
		c0-0.4,0-0.9,0-1.3c3.1,0,6.1,0,9.6,0c-0.3-2-0.3-3.7-0.8-5.2c-2.8-9.9-13.3-16.1-23.6-13.8c-2.6,0.6-5.5,0.7-7.6,2.9
		c-1,0.3-2.5,0-2.2,1.8c0,0,0-0.1,0-0.1c-1.4,0.7-3.1,1.1-4.2,2.1c-9,8.9-17.9,17.9-26.8,26.9c-6.9,6.9-13.8,13.9-20.7,20.8
		c-4.6,4.6-9.4,9.1-14,13.7c-4.3,4.3-8.2,8.9-12.6,13c-6.7,6.4-13.2,12.9-21.2,18c-5.8,3.7-12.1,6-18.7,7.7c-2.5,0.7-5.1,1.4-7.6,2
		c-3.4,0.8-4,1.8-2.9,5.3c-0.6-0.1-1.2-0.2-1.7-0.4c-5.1-2.2-10.2-2.2-15,0.8C31.5,492.1,31,492.1,30.5,492.2z"/>
	<path class="st2" d="M419.3,114.9c-0.8,0.9-1.5,1.8-2.3,2.7c-16,16-32,32-48,48c-11.8,11.8-23.7,23.7-35.5,35.5
		c-9.2,9.2-18.4,18.4-27.6,27.6c-24.4,24.4-48.8,48.8-73.2,73.2c-14.9,14.9-29.8,29.8-44.7,44.7c-5.1,5.2-10.9,9.5-17.1,13.3
		c-6.6,4-16.8,3.3-22.9-1.5c-1-0.8-1.5-2.1-2.2-3.1c1.4,0.5,2.9,1,4.3,1.4c5.3,1.6,10,0.4,14.4-2.9c3.6-2.8,7.5-5.1,10.7-8.2
		c8.4-8.2,16.5-16.7,24.8-25c5.8-5.9,11.6-11.7,17.5-17.5c3.8-3.8,7.3-8.2,11.6-11.4c6.3-4.6,11.1-10.7,17.1-15.6
		c2.3-1.9,4.2-4.2,6.3-6.3c6.7-6.9,13.3-13.7,20-20.6c2.2-2.2,4.3-4.4,6.6-6.5c4.7-4.5,9.3-9,14-13.5c4.5-4.3,9-8.6,13.4-12.9
		c6.7-6.6,13.4-13.2,20-19.9c5.7-5.7,11.2-11.5,16.8-17.3c4.3-4.4,8.7-8.8,13.1-13.1c2-1.9,4.4-3.5,6.5-5.4c1.9-1.6,3.6-3.4,5.4-5.1
		c4.9-4.8,9.7-9.6,14.5-14.5c2.4-2.5,4.7-5.2,7.1-7.7c0.8-0.9,1.9-1.6,2.8-2.5c6-5.7,12.1-11.5,18.1-17.2c1.3-1.2,2.4-2.6,3.6-3.9
		C416.1,111.4,418.6,112.3,419.3,114.9z"/>
	<path class="st3" d="M59.4,355.4c2.1,14.4,12.8,25.7,21.6,28.6c-0.3-0.7-0.5-1.2-0.8-1.7c-6.7-10.8-6.4-26.9,4.3-37.8
		c9.3-9.5,23.2-12,34.8-6.9c10.3,4.5,16.2,12.7,19.1,23.4c0.2,0.6,0.4,1.1,0.6,1.7c0.1,0.7,0.1,1.4,0.2,2.1c0,0.5,0,0.9,0,1.4
		c0,7.5-2.9,14-7.1,20c-0.9,1.3-2.4,2-3.7,3c1.2-2.6,2.4-5.2,3.7-7.9c0.2-0.6,0.4-1.2,0.7-1.8c-0.2-0.1-0.4-0.1-0.5-0.2
		c-0.2,0.5-0.4,1.1-0.6,1.6c-3.5,4-6.9,7.9-11.3,11c-7.3,5.2-15.5,7.2-24.4,7c-4.7-0.1-9.2-1.3-13.5-2.9c-5.6-2.2-10.3-5.7-14.6-9.8
		c-3-2.8-5.5-5.9-7.2-9.7c-4.6-10.3-6.8-20.8-2.7-31.8c0.3-0.8,0.9-1.5,1.4-2.3C59.3,346.8,59.4,351.1,59.4,355.4z M92.3,364.7
		c-0.2,13.3,8.3,18,15.1,18.5c3.9,0.3,7.6-1.1,10.6-3.7c4.4-3.8,5.9-8.7,5.4-14.8c3.8,0,7.2,0,10.6,0c0.1-12.4-12.6-24.6-27.5-23.8
		c-14.2,0.8-25,13.6-24.3,23.8C85.4,364.7,88.7,364.7,92.3,364.7z"/>
	<path class="st2" d="M128.4,389.2c1.2-1,2.8-1.8,3.7-3c4.2-6,7.1-12.5,7.1-20c0.5,0.5,1.4,1.1,1.4,1.6c-0.2,4.6-0.1,9.2-0.9,13.7
		c-1.3,8-5.1,15.2-9.3,22c-2.1,3.4-5.1,6.2-7.9,9.1c-2,2.1-4.2,3.9-6.3,5.8c-6.2,5.7-12.5,11.5-18.7,17.2
		c-9.9,9.1-19.6,18.5-29.7,27.4c-6.8,6-13.2,12.4-21.4,16.6c-2,1-4,2-6.1,2.7c-4.2,1.3-8.4,2.3-12.6,3.5c1.8-1.5,3.4-3.1,5.3-4.4
		c5.6-4,11.1-8.2,15.8-13.3c1.8-2,4.2-3.5,6.2-5.3c1-0.9,1.9-2,2.9-3c0.5-0.5,1.2-0.9,1.8-1.3c0.8-0.5,1.6-0.9,2.3-1.6
		c6.2-5.8,12.5-11.5,18.6-17.4c3.1-2.9,5.8-6.2,8.8-9.2c2-2,4-4,6.1-6c1.8-1.7,3.6-3.4,5.4-5.1c2.3-2.3,4.4-4.9,6.8-7.1
		c7-6.3,13.4-13.1,18.7-20.8C126.9,390.4,127.8,389.9,128.4,389.2z"/>
	<path class="st4" d="M419.3,114.9c-0.7-2.7-3.2-3.6-5.1-5c3.6-3.8,7.2-7.7,11-11.5c0.7-0.7,1.8-1,2.7-1.5c0.1,0.3,0.1,0.7,0.2,1
		c0.1-0.1,0.3-0.1,0.4-0.2c-0.2-0.3-0.4-0.5-0.6-0.8c1.2-1.7,2.2-3.6,3.7-5c6.9-6.6,14.1-13.1,21-19.7c3.1-2.9,5.8-6.3,8.9-9.2
		c4.4-4.3,8.8-8.5,13.4-12.5c1.5-1.3,2.4-2.5,2.8-4.3c0.1,0,0.3,0.1,0.4,0c0.4,2.4,1.7,1.6,2.7,0.6c5.9-6.4,11.8-13,17.7-19.4
		c1.1-1.1,2.4-2,3.5-3c-0.5-0.1-1-0.3-1.6-0.4c0-0.1,0-0.2,0-0.3c1.1-0.1,2.1-0.2,3.4-0.3c-0.5-0.4-0.8-0.6-1.2-0.9
		c0.7-0.4,1.9-0.6,2.1-1.2c1.9-4.8,6.5-6.2,10.4-8.4c2.3-1.3,5.1-2.1,7.8-2.5c1.9-0.2,3.3,1.4,3.6,3.5c-0.1,0.2-0.3,0.3-0.5,0.4
		c-5.7,1.2-10.2,4.4-14.1,8.4c-7.6,7.8-15.2,15.7-22.9,23.5c-3.8,3.8-7.8,7.3-11.6,11c-5.8,5.7-11.5,11.4-17.2,17.1
		c-9.3,9.4-18.6,18.7-27.9,28.1c1.5,1.9,2.9,3.6,4.3,5.3c-0.3,0.2-0.5,0.4-0.8,0.7c-4-1.5-6.4-4.7-8-7.8c-2.9,2.9-5.7,5.7-8.6,8.6
		c1.1,1,2.7,2.2,4.2,3.5C422.1,113.5,420.7,114.2,419.3,114.9z"/>
	<path class="st2" d="M59.4,355.4c0-4.3-0.1-8.6-0.1-12.9c0.3-0.4,0.7-0.9,0.8-1.3c0.1-1-0.4-2.2,0-2.9c2.8-5.1,5.6-10.3,10.5-13.7
		c3.4-2.3,7.2-4.1,11-5.7c8-3.4,16.5-3.1,25-2.9c2.4,0,4.1-0.8,6.2-2.1c7-4.3,14.3-8.2,22.9-8c2.3,0,4.6-0.3,6.8,0.1
		c2.6,0.5,5.1,1.5,7.7,2.4c0.2,0.1,0,1.1,0,1.6c-1.2,0.1-2.4,0.2-3.7,0.3c-3.5-1.6-7.3-1.2-10.7-0.4c-6.5,1.6-12.3,4.7-16.9,9.9
		c-2.3,2.6-4.7,5-7.3,7.7c-8.6-2.3-17.5-2.2-26,0.9c-5.1,1.8-10,4.3-13.9,8.4c-4.1,4.2-7.7,8.8-10.2,14.2
		C60.8,352.3,60.1,353.8,59.4,355.4z"/>
	<path class="st5" d="M237.1,366.3c-0.2,0.5-0.6,1-0.6,1.5c0.8,8.4-3,15.1-7.7,21.4c-2.7,3.6-5.8,6.6-3.9,11.6
		c-0.1,15-12.7,28.1-29.2,26.5c-6-0.6-12.1-4.4-15.6-10.1c10.3,3.7,19.8,3.7,27.8-4.1c4.6-4.5,6.9-10.1,6.8-16.4
		c-0.1-11.7-9.1-23-23.6-22.8c2.7-1.5,3-1.6,10.8-1.3c3.8,1.7,7.7,3.4,11.5,5c0.7,3,1.4,6,2.2,8.9c0.9,3.6,2.4,4.2,5.2,1.9
		c2.8-2.3,5.4-5,7.9-7.7c2.7-3,4.5-6.6,5.3-10.6c0.2-1.3-0.2-2.7-0.4-4c0-0.2,0-0.5,0-0.7c0.5-0.5,0.9-1,1.4-1.5
		C235.7,364.8,236.4,365.5,237.1,366.3z"/>
	<path class="st6" d="M519.5,30.1c-0.3,0.9-0.3,2.1-0.9,2.7c-3,3.1-6.1,6-9.1,9c-5.4,5.4-10.8,10.8-16.2,16.3
		c-5.2,5.3-10.3,10.6-15.4,15.8c-1.8,1.9-4,3.4-5.8,5.3c-3.1,3.2-5.9,6.6-8.9,9.7c-4.8,4.9-9.8,9.8-14.7,14.6
		c-2.3,2.3-4.7,4.7-7,7.1c-2.9-0.1-1.2-3.2-2.7-4.2c0.6-0.7,1.2-1.5,1.8-2.2C465,79.8,489.3,55.3,513.7,31c1.4-1.4,3.2-2.2,4.8-3.3
		C518.8,28.5,519.1,29.3,519.5,30.1z"/>
	<path class="st7" d="M179.5,380.2c2.1-2.1,5-2.3,7.6-2.9c10.3-2.3,20.8,3.9,23.6,13.8c0.4,1.6,0.5,3.2,0.8,5.2c-3.5,0-6.6,0-9.6,0
		c-1-2.4-2-4.7-2.9-7.1c-0.5-0.5-1.1-0.9-1.6-1.4c-0.9-0.3-1.8-0.7-2.7-1c-0.2-1.7-1.5-1.8-2.9-2c-5.9-0.9-12.6,4.6-12.3,11.6
		c-2.5,0-5,0-8,0c0.6-2.7,1.1-5,1.6-7.3c0.9-1.7,1.8-3.4,2.8-5c0.4-0.8,1-1.5,1.4-2.3c0,0,0,0.1,0,0.1
		C178.1,381.4,178.8,380.8,179.5,380.2z"/>
	<path class="st8" d="M146.4,310.1c1.2-0.1,2.4-0.2,3.7-0.3c0.5-0.1,1.1-0.2,1.6-0.3c0.6,0.4,1.3,0.7,1.9,1.1
		c-0.8,0.4-1.5,1-2.3,1.2c-9.1,2-15.4,7.6-19.7,15.7c-1.2,2.3-1.5,4.4,0.1,6.7c1.2,1.6,1.9,3.5,2.8,5.3c-2.7-0.7-5.5-1.2-8.2-2.2
		c-3.4-1.2-6.8-2.8-10.5-4.4c7.3-11.6,16.1-20.1,29.7-22.3C145.9,310.6,146.2,310.3,146.4,310.1z"/>
	<path class="st7" d="M30.5,492.2c0.5-0.1,1-0.1,1.3-0.4c4.9-2.9,9.9-2.9,15-0.8c0.5,0.2,1.1,0.3,1.7,0.4c1.4,1.3,2.8,2.5,4.1,3.9
		c2.8,2.9,4.7,6.3,4.5,10.5c-2.1,0-4.3,0-6.5,0c-1.8,2.2-1.2,6.8-5.8,6.3c4.4-4.4,4.8-7.8,1.6-11.7c-2.2-2.8-5-3.8-8-2.9
		c-3.7,1.2-5.5,3.6-5.7,7.6c0.3,1.6,0.6,3.1,0.9,4.7c-0.6-0.2-1.3-0.3-1.6-0.7c-0.8-1.2-1.3-2.4-2.1-3.9c-1.7,0-3.6,0-5.4,0
		c-0.6-3.6,0.9-6.6,2.9-9.4c0.6-0.9,1.1-1.9,1.7-2.9c0,0,0,0,0,0C29.6,492.7,30.1,492.5,30.5,492.2
		C30.5,492.2,30.5,492.2,30.5,492.2z"/>
	<path class="st8" d="M3.2,479.9c0.1,7.6,3.1,14,8.1,19.4c1.5,1.7,2.1,3.2,1.9,5.4c-0.8,9.3,2.7,16.7,10.4,21.9
		c4.8,3.2,10.1,4.8,15.9,3.9c1.5-0.2,3.1-0.1,4.7-0.2c-1.9,1-3.7,2.6-5.8,3c-9.1,1.7-16.8-0.1-23.7-7.3c-6.4-6.7-7.4-14-6-22.4
		c0.1-0.8-0.3-1.9-0.7-2.6c-0.8-1.3-1.9-2.5-2.8-3.7C1.4,492.7,0.5,484.8,3.2,479.9z"/>
	<path class="st6" d="M388.9,156.6c2-2.3,4-4.7,6.2-6.9c9.1-9.2,18.3-18.4,27.6-27.6c0.9-0.9,2.1-1.5,3.1-2.3
		c1.9,0.3,3.9,0.5,5.8,0.8c-3.5,3.4-7,6.6-10.3,10.1c-4.7,4.9-9.1,10-13.8,14.9c-3,3.1-6.4,5.9-9.6,8.9c-2-0.8-3.7-0.9-5.4,1.1
		C391.8,156.4,390.1,156.3,388.9,156.6z"/>
	<path class="st2" d="M233.6,366.2c0.1,1.3,0.6,2.7,0.4,4c-0.8,4-2.6,7.6-5.3,10.6c-2.4,2.7-5,5.4-7.9,7.7c-2.8,2.3-4.3,1.7-5.2-1.9
		c-0.8-3-1.5-5.9-2.2-8.9c1.8,0.5,3.6,1.1,5.4,1.6c4.9,1.3,8.2-0.2,10.5-4.7C230.8,371.9,232.2,369,233.6,366.2z"/>
	<path class="st2" d="M27.7,485.7c-0.5,0.7-0.9,1.5-1.6,2.2c-2.5,2.6-5.4,4.9-7.7,7.8c-1.5,1.9-2.4,1.7-4,0.4
		c-4.3-3.7-8.1-7.5-9-13.4c-0.1-1,0.2-2.6-1.7-2.6c0-0.5,0-1,0-1.5l0,0c2.1-0.1,1.2-1.7,1.4-2.8c1,2.5,1.8,5,3,7.4
		c3.1,6.2,7.5,7.7,13.8,4.8C23.9,487,25.8,486.4,27.7,485.7z"/>
	<path class="st9" d="M388.9,156.6c1.2-0.3,2.9-0.2,3.6-1c1.6-2,3.4-1.8,5.4-1.1c-0.8,1.4-1.5,2.9-2.3,4.3c-3.1,3-6.2,6.1-9.2,9.1
		c-1.3,1-2.5,1.9-3.8,2.9c0-1.1-0.1-2.2-0.1-3.2c0.2-0.1,0.5-0.1,0.7-0.2c-0.9-0.8-1.9-1.6-2.8-2.3
		C383.1,162.3,386,159.5,388.9,156.6z"/>
	<path class="st9" d="M431.5,120.7c-1.9-0.3-3.9-0.5-5.8-0.8c0.4-0.8,0.8-1.6,1.3-2.4c0.5-0.4,1.1-0.7,1.6-1.2
		c2.2-2.1,4.5-4.2,6.6-6.3c0.4-0.4,0.5-1,0.7-1.6c0.3-0.2,0.5-0.4,0.8-0.7c0.7-0.5,1.4-1,2.1-1.4c1.5,1-0.2,4.1,2.7,4.2
		c-2.3,2.6-4.6,5.2-7,7.7C433.6,119.2,432.5,119.9,431.5,120.7z"/>
	<path class="st9" d="M521.9,29.3c-0.3,0.1-0.6,0.1-0.9,0.2c-0.5,0.2-1,0.4-1.6,0.6c-0.3-0.8-0.6-1.6-0.9-2.4c0,0,0.1,0.1,0.1,0.1
		c0-0.2,0-0.5,0-0.7c0.7-1,1.4-1.9,2-2.9c1.9-3.3,3.7-6.6,5.5-9.9c0.2-0.1,0.4-0.2,0.5-0.4c1.6,3.4,0.3,6.4-1.2,9.4
		c-0.7,1.6-1.6,3.1-2.4,4.6c0,0,0-0.1,0-0.1C522.7,28.3,522.3,28.8,521.9,29.3z"/>
	<path class="st7" d="M52.1,524.6c0.2-0.8,0.2-1.6,0.5-2.3c0.9-2.1,1.8-4.2,2.8-6.3c0.3-0.6,1.1-1,1.7-1.5
		C56.5,518.4,55.1,521.9,52.1,524.6z"/>
	<path class="st7" d="M57.1,512.4c0-1.7,0-3.4,0-5C58.3,509,58.3,510.7,57.1,512.4z"/>
	<path class="st2" d="M235,364c-0.5,0.5-0.9,1-1.4,1.5C233.9,364.9,232.7,362.8,235,364z"/>
	<path class="st2" d="M144.2,354.7c-1,0-2.1,0.1-2.1-1.4C142.8,353.7,143.5,354.2,144.2,354.7z"/>
	<path class="st0" d="M5.3,475.7c-0.2,1.1,0.7,2.7-1.4,2.8C4.4,477.5,4.8,476.6,5.3,475.7z"/>
	<path class="st2" d="M153.7,310.7c-0.6-0.4-1.3-0.7-1.9-1.1C152.4,309.9,153,310.3,153.7,310.7z"/>
	<path class="st2" d="M137.8,345.4c-0.5-0.5-0.9-1-1.4-1.5C136.9,344.3,137.3,344.9,137.8,345.4z"/>
	<path class="st2" d="M139.2,349c-0.9-0.2-1.9-0.3-0.7-1.5C138.7,348,139,348.5,139.2,349z"/>
	<path class="st8" d="M3.9,478.5c0,0.5,0,1,0,1.5c-0.2,0-0.5,0-0.7,0C3.4,479.5,3.6,479,3.9,478.5z"/>
	<path class="st1" d="M29.1,492.9c-0.6,1-1.1,2-1.7,2.9c-1.9,2.9-3.4,5.8-2.9,9.4c0.6,10.9,6,15.4,19,15.9
		c-6.1,3.6-15.1-0.4-18.5-5.2c-4.9-6.8-4-16.6,2.2-22.2C27.7,493.4,28.5,493.2,29.1,492.9z"/>
	<path class="st10" d="M46.4,500.5c3.2,4,2.8,7.3-1.6,11.7c0,0,0,0,0,0c-0.5,0.2-1,0.5-1.4,0.7c-1.9,0-3.7,0-5.6,0.1
		c-1.4-1-2.8-2-4.2-3l0.1-0.1c-0.3-1.6-0.6-3.1-0.9-4.7c1.2,0.7,2.4,1.6,3.7,2.1C41.6,509.2,46.2,506,46.4,500.5z"/>
	<path class="st7" d="M33.6,510c1.4,1,2.8,2,4.2,3c-0.7,0.5-1.4,1.1-2.4,1.8C34.8,513.3,34.2,511.6,33.6,510z"/>
	<path class="st7" d="M43.4,512.9c0.5-0.2,1-0.5,1.4-0.7c-0.2,0.4-0.3,0.9-0.5,1.3C44,513.3,43.7,513.1,43.4,512.9z"/>
	<path class="st2" d="M139.2,364.8c-0.1-0.7-0.1-1.4-0.2-2.1C140.4,363.2,140.3,363.9,139.2,364.8z"/>
	<path class="st1" d="M30.5,492.2c-0.5,0.2-1,0.5-1.5,0.7C29.6,492.7,30.1,492.5,30.5,492.2z"/>
	<path class="st3" d="M199,389.3c1,2.4,2,4.7,2.9,7.1c0,0.4,0,0.9,0,1.3c-0.1,0.2-0.3,0.2-0.5,0.2c-1.5,0.5-2.9,0.8-4.3,1.4
		c-4.4,1.7-8.8,0.4-11.4-3.6c-0.9-1.4-1.6-2.9-2.4-4.3c0.2-0.3,0.2-0.7,0.5-0.9c2.9-3.6,6.9-3.8,11-3.6c0.9,0.3,1.8,0.7,2.7,1
		C197.9,388.4,198.4,388.8,199,389.3z"/>
	<path class="st10" d="M183.2,391.4c0.8,1.4,1.5,2.9,2.4,4.3c2.6,4,7.1,5.3,11.4,3.6c1.4-0.6,2.9-0.9,4.3-1.4c0,0.7,0,1.3-0.1,2
		c-0.3,0.6-0.6,1.3-1,1.9c-4.1,6.3-6.1,6.3-12.7,4.5c-0.2-0.1-0.4,0.1-0.7,0.2c-0.5-0.6-1.1-1.2-1.6-1.8
		C181.2,400.8,180.5,396.4,183.2,391.4z"/>
	<path class="st5" d="M183.2,391.4c-2.7,5-2.1,9.4,2,13.2c0.6,0.6,1.1,1.2,1.6,1.8c-0.6,0.1-1.3,0.5-1.6,0.3
		c-3.7-2.4-5.8-5.7-5.7-10.2c-0.3-7,6.4-12.6,12.3-11.6c1.4,0.2,2.6,0.3,2.9,2c-4.1-0.2-8.1,0-11,3.6
		C183.5,390.8,183.4,391.1,183.2,391.4z"/>
	<path class="st7" d="M201.3,399.9c0-0.7,0-1.3,0.1-2c0.2,0,0.4,0,0.5-0.2C203,398.8,202.9,399.5,201.3,399.9z"/>
	<path class="st11" d="M179.5,380.2c-0.7,0.6-1.5,1.2-2.2,1.8C177,380.2,178.5,380.4,179.5,380.2z"/>
	<path class="st12" d="M92.3,364.7c-3.6,0-6.9,0-10.2,0c-0.7-10.2,10.2-23,24.3-23.8c14.9-0.8,27.6,11.4,27.5,23.8
		c-3.4,0-6.8,0-10.6,0c0.6,6-1,11-5.4,14.8c-3,2.6-6.6,4-10.6,3.7C100.7,382.7,92.1,378,92.3,364.7z M97.4,360.7
		c-0.6,0.3-1.5,0.5-1.6,0.9c-0.6,2.3-1.3,4.6-1.3,6.9c0.1,7.5,7,13.3,14.6,12.6c7.7-0.7,13-7.3,12.1-14.9c0.2-5.2-2.9-8.5-7-10.7
		c-4.8-2.5-9.7-2.3-14.1,1.2C98.9,357.7,96.9,358.5,97.4,360.7z"/>
	<path class="st11" d="M131.6,380.9c0.2-0.5,0.4-1.1,0.6-1.6c0.2,0.1,0.4,0.1,0.5,0.2c-0.2,0.6-0.4,1.2-0.7,1.8
		C131.9,381.2,131.8,381.1,131.6,380.9z"/>
	<path class="st0" d="M526.1,14.3c-1.8,3.3-3.7,6.6-5.5,9.9c-0.6,1-1.3,1.9-2,2.9c0,0.2,0,0.5,0,0.7c0,0-0.1-0.1-0.1-0.1
		c-1.6,1.1-3.4,2-4.8,3.3c-24.4,24.4-48.8,48.8-73.1,73.2c-0.7,0.7-1.2,1.4-1.8,2.2c-0.7,0.5-1.4,1-2.1,1.4
		c-1.4-1.7-2.8-3.4-4.3-5.3c9.3-9.4,18.6-18.8,27.9-28.1c5.7-5.7,11.4-11.5,17.2-17.1c3.8-3.7,7.9-7.2,11.6-11
		c7.7-7.8,15.2-15.7,22.9-23.5C515.9,18.6,520.4,15.4,526.1,14.3z"/>
	<path class="st11" d="M428,96.9c0.2,0.3,0.4,0.5,0.6,0.8c-0.1,0.1-0.3,0.1-0.4,0.2C428.1,97.6,428,97.3,428,96.9L428,96.9z"/>
	<path class="st5" d="M199,389.3c-0.5-0.5-1.1-0.9-1.6-1.4C197.9,388.4,198.4,388.8,199,389.3z"/>
	<path class="st8" d="M46.4,500.5c-0.2,5.5-4.9,8.7-10,6.8c-1.3-0.5-2.5-1.4-3.7-2.1c0.2-4,2-6.4,5.7-7.6
		C41.4,496.7,44.3,497.7,46.4,500.5z"/>
	<path class="st11" d="M521.9,29.3c0.4-0.5,0.8-1,1.1-1.5C523.8,29.2,523,29.4,521.9,29.3z"/>
	<path class="st6" d="M518.6,27.8c0-0.2,0-0.5,0-0.7C518.6,27.3,518.6,27.5,518.6,27.8z"/>
	<path class="st10" d="M429,109.3c-0.9,0.5-1.5,1.2-1.9,1.1c-0.5-0.1-0.9-0.9-1-1.5c0-0.3,0.9-1,1.2-1
		C427.8,108,428.3,108.6,429,109.3z"/>
	<path class="st3" d="M97.4,360.7c-0.6-2.3,1.4-3,2.6-4c4.4-3.4,9.3-3.7,14.1-1.2c4.1,2.2,7.2,5.5,7,10.7c-3.5,4.1-7.8,6.8-13.4,5.4
		C102.1,370.3,98.4,366.7,97.4,360.7z"/>
	<path class="st10" d="M97.4,360.7c1,6,4.6,9.6,10.3,10.9c5.6,1.4,9.9-1.3,13.4-5.4c1,7.7-4.3,14.2-12.1,14.9
		c-7.5,0.7-14.4-5.1-14.6-12.6c0-2.3,0.7-4.7,1.3-6.9C95.9,361.2,96.9,361,97.4,360.7z"/>
</g>
<rect x="299" y="221.1" transform="matrix(0.7071 0.7071 -0.7071 0.7071 266.0099 -139.2079)" class="st1" width="4.1" height="60.7"/>
<rect x="417.1" y="106" transform="matrix(0.7071 -0.7071 0.7071 0.7071 48.6267 336.2819)" class="st0" width="26.3" height="6.8"/>
<rect x="421.5" y="94.3" transform="matrix(0.7071 0.7071 -0.7071 0.7071 198.3702 -270.0869)" class="st4" width="7.4" height="20.2"/>
</svg>
