<?xml version="1.0" encoding="utf-8"?>
<!-- Generator: Adobe Illustrator 21.1.0, SVG Export Plug-In . SVG Version: 6.00 Build 0)  -->
<svg version="1.1" id="Layer_1" xmlns="http://www.w3.org/2000/svg" xmlns:xlink="http://www.w3.org/1999/xlink" x="0px" y="0px"
	 viewBox="0 0 1591 865.4" style="enable-background:new 0 0 1591 865.4;" xml:space="preserve">
<style type="text/css">
	.st0{fill:#76A2BF;}
	.st1{fill:#1A1E22;}
	.st2{fill:#D3EEF9;}
	.st3{fill:#030303;}
</style>
<g>
	<path class="st0" d="M1591,722.4c0,47.7,0,95.3,0,143c-516.3,0-1032.7,0-1549,0c1-1.3,2-2.7,3.2-3.7c10.1-9.2,20.4-18.3,30.5-27.6
		c15.3-13.9,30.5-27.9,45.8-41.8c10.7-9.8,21.5-19.5,32.3-29.3c11.6-10.6,23.2-21.2,34.8-31.8c9.5-8.7,18.9-17.6,28.4-26.4
		c4-3.7,8-7.4,12.1-11c10.3-9.3,20.7-18.5,31.2-27.9c-1.3-18.4,0.5-36.7-0.1-55c-0.9-26.2-0.9-52.5-1.1-78.8
		c-0.2-21.5,0.1-43-0.1-64.5c-0.1-15.1-0.8-30.2-0.9-45.3c-0.2-29.2,0-58.3,0-87.7c2-1.6,4.2-3.1,6.1-4.9
		c11.7-10.7,23.4-21.4,35.1-32.1c11.6-10.6,23.2-21.2,34.8-31.8c11.4-10.4,22.7-20.7,34.1-31.1c11.7-10.7,23.5-21.4,35.1-32.1
		c10.2-9.4,20.3-19,30.5-28.5c3.9-3.6,7.8-7.2,11.7-10.7c13.7-12.4,27.4-24.8,41.2-37.2c6.6-6,13.3-11.9,19.9-17.9
		c13.3-12.2,26.5-24.5,39.8-36.7c3.5-3.2,7.1-6.3,10.7-9.5c98,61.7,195.7,123.3,293.1,184.7c-9.1,71.5-18.2,142.3-27.2,213.2
		c-50.6,15.5-101.2,31.1-151.8,46.6c-25.2-37.9-50.1-75.6-75.4-113.8c18.4-15.7,36.6-31.3,54.4-46.5c9.8,3.8,18.9,7.4,28,11
		c0.5,0.1,1.1,0.3,1.6,0.4c0-0.1,0-0.1,0-0.2c-0.6-0.1-1.2-0.1-1.8-0.2c0.1-0.7,0.1-1.4,0.2-2.1c-0.4-0.7-0.8-1.3-1.2-2l-0.1,0.4
		c-0.3-0.7-0.6-1.5-1-2.2c-5.9-7.6-11.8-15.2-17.8-22.7c-4.2-5.3-8.5-10.4-13.1-16c-29,28.2-57.6,56-86.3,84
		c35.8,53.2,71.1,105.8,106.5,158.5c9.7-3.1,18.8-6,27.9-9c2.9,3.7,5.6,7.6,8.8,11.1c12.5,13.3,25.1,26.5,37.6,39.7
		c12.4,13.1,24.9,26.2,37.3,39.3c12.7,13.3,25.4,26.7,38,40c12,12.6,23.9,25.3,35.9,37.9c8.6,9,17.4,17.9,25.9,27
		c2.6,2.8,5.7,3.5,9.1,3.7c1.3,0.1,2.7-0.1,4,0c14.4,1.7,28.9,3.5,43.3,5.2c3.8,0.4,7.9-0.1,11.3,1.4c5.2,2.2,10.5,2.1,15.8,2.6
		c5.2,0.5,10.5,0.6,15.8,1.1c9,0.9,17.9,2.1,26.9,2.9c9.5,0.8,19.1,1.2,28.6,2.1c12.4,1.2,24.8,2.7,37.2,3.9c11.1,1.1,22.3,2,33.4,3
		c15.2,1.3,30.5,2.7,45.7,4c10.8,1,21.6,2,32.4,3c11.5,1,22.9,2,34.4,3c11.3,1,22.6,2,33.9,3c14.7,1.3,29.5,2.7,44.2,4
		c9.7,0.8,19.4,1.3,29.1,2c4.1,0.3,8.2,0.7,12.3,1c11.1,1,22.3,2,33.4,2.9c1.1,0.1,2.4,0,3.4-0.3c18.2-5.6,36.4-11.1,54.6-16.8
		c19.4-6,38.9-12.1,58.3-18.2c29-9.2,58-18.5,87.1-27.5C1577.3,725.4,1584.2,724.1,1591,722.4z"/>
	<path class="st1" d="M693,546.4c-9.1,2.9-18.3,5.9-27.9,9c-35.4-52.6-70.7-105.3-106.5-158.5c28.7-27.9,57.3-55.7,86.3-84
		c4.5,5.5,8.9,10.7,13.1,16c6,7.5,11.9,15.1,17.8,22.7c0.5,0.6,0.7,1.4,1,2.2c-1.4-0.7-2.9-1.4-4.3-2.3c-8.5-5.5-16.9-11-25.5-16.6
		c-22.1,19-43.8,37.7-65.7,56.6c28.9,45,57.5,89.5,86.4,134.5c55.7-17.7,111.1-35.4,166.7-53.2c7.5-76.3,14.9-152.4,22.4-228.8
		C754.6,173.4,652.3,102.7,550,32c-101.5,99.4-202.8,198.5-304.2,297.8c0,112.8,0,225.6,0,338.4c-9.7,8.3-19.2,16.4-28.7,24.5
		c-30.8,26.3-61.6,52.5-92.4,78.8C88.2,802.8,51.6,834.1,15,865.4c-5,0-10,0-15,0c0-10,0-20,0-30c36.3-23.2,72.7-46.2,108.8-69.8
		c9.1-6,16.9-14,25.2-21.2c33.3-28.8,66.5-57.6,99.9-86.6c-0.4-14.8-0.8-29.8-1.3-44.8c-1.2-38.6-2.4-77.3-3.6-115.9
		c-1.8-58.3-3.5-116.6-5.1-174.9c-0.1-2.7,0.9-5.9,2.4-8.2c6-9.4,12.3-18.6,18.7-27.7c1.5-2.1,3.5-3.9,5.5-5.8
		C347.8,188.5,445,96.6,542.3,4.7c1.6-1.5,3.1-3,5-4.7c107.3,78.3,214.4,156.5,321.7,234.9c-1,84.4-2,168.9-3,253.8
		c-48,16-96,32.1-144.7,48.3c1.7,1.8,3,3.2,4.4,4.5c54.5,53.6,109.1,107.3,163.6,160.9c1.3,1.3,2.5,2.6,3.8,3.9
		c-0.5,0.8-1.5,1.8-1.3,2.2c1.3,2.8,2.8,5.6,4.3,8.3c1.7,3.2,3.3,6.3,5,9.5c-7.3-2.1-14.7-3.8-21.9-6.3c-3.3-1.1-6.7-3-9.1-5.4
		C815,659,760.2,603.2,705.4,547.3c-1.4-1.4-2.2-3.4-3.2-5.1c-0.5,0.4-1,0.7-1.4,1.1C698.2,544.3,695.6,545.4,693,546.4z"/>
	<path class="st2" d="M15,865.4c36.6-31.3,73.2-62.6,109.8-93.8c30.8-26.3,61.6-52.5,92.4-78.8c9.5-8.1,19-16.2,28.7-24.5
		c0-112.8,0-225.6,0-338.4C347.3,230.5,448.5,131.4,550,32C652.3,102.7,754.6,173.4,856.8,244c-7.5,76.4-15,152.5-22.4,228.8
		c-55.6,17.7-111,35.4-166.7,53.2c-28.8-44.9-57.5-89.5-86.4-134.5c21.9-18.8,43.7-37.6,65.7-56.6c8.6,5.6,17,11.1,25.5,16.6
		c1.4,0.9,2.9,1.5,4.3,2.3c0,0,0.1-0.4,0.1-0.4c0.4,0.7,0.8,1.3,1.2,2c-0.1,0.7-0.1,1.4-0.2,2.1l0.1-0.1c-9.1-3.6-18.2-7.1-28-11
		c-17.8,15.2-36,30.8-54.4,46.5c25.3,38.1,50.3,75.8,75.4,113.8c50.6-15.5,101.2-31.1,151.8-46.6c9.1-70.9,18.1-141.7,27.2-213.2
		c-97.4-61.4-195.1-123-293.1-184.7c-3.6,3.2-7.2,6.2-10.7,9.5c-13.3,12.2-26.5,24.5-39.8,36.7c-6.6,6-13.2,11.9-19.9,17.9
		c-13.7,12.4-27.5,24.8-41.2,37.2c-3.9,3.5-7.8,7.1-11.7,10.7c-10.2,9.5-20.3,19-30.5,28.5c-11.7,10.8-23.4,21.4-35.1,32.1
		c-11.3,10.4-22.7,20.7-34.1,31.1c-11.6,10.6-23.2,21.2-34.8,31.8c-11.7,10.7-23.4,21.4-35.1,32.1c-1.9,1.8-4.1,3.3-6.1,4.9
		c0,29.4-0.1,58.6,0,87.7c0.1,15.1,0.8,30.2,0.9,45.3c0.2,21.5-0.1,43,0.1,64.5c0.2,26.3,0.2,52.5,1.1,78.8
		c0.6,18.3-1.2,36.6,0.1,55c-10.5,9.4-20.9,18.6-31.2,27.9c-4.1,3.6-8.1,7.3-12.1,11c-9.5,8.8-18.9,17.6-28.4,26.4
		c-11.6,10.6-23.2,21.2-34.8,31.8c-10.7,9.8-21.5,19.5-32.3,29.3c-15.3,13.9-30.5,27.9-45.8,41.8c-10.1,9.2-20.4,18.3-30.5,27.6
		c-1.2,1.1-2.1,2.5-3.2,3.7C33,865.4,24,865.4,15,865.4z"/>
	<path class="st2" d="M693,546.4c2.6-1,5.2-2,7.8-3.1c0.5-0.4,1-0.7,1.4-1.1c1.1,1.7,1.8,3.7,3.2,5.1
		C760.2,603.2,815,659,869.9,714.7c2.4,2.5,5.8,4.3,9.1,5.4c7.2,2.4,14.6,4.2,21.9,6.3c5.3,1.7,10.6,4.2,16.1,4.9
		c13.7,1.8,27.6,2.8,41.4,4c9.4,0.8,18.8,1.3,28.2,2.1c14.5,1.2,29,2.6,43.5,3.9c4.4,0.4,8.9,0.8,13.4,1.2
		c9.7,0.9,19.4,1.9,29.1,2.8c8.9,0.8,17.8,1.3,26.7,2.2c8.4,0.8,16.7,1.9,25.1,2.8c6.6,0.7,13.1,1.4,19.7,2.2
		c10.5,1.2,20.9,2.6,31.4,3.8c6.7,0.8,13.5,1.4,20.2,2.2c10.6,1.2,21.3,2.6,31.9,3.8c6.7,0.8,13.4,1.5,20.2,2.3
		c10.3,1.2,20.6,2.5,30.9,3.7c6.9,0.8,13.8,1.4,20.7,2.2c10.1,1.2,20.3,2.5,30.4,3.8c7.5,0.9,15,2.2,22.6,2.7
		c7.2,0.5,14.5,0.8,21.5,0c5.9-0.7,11.6-3.2,17.4-4.9c57.7-16.9,115.5-33.8,173.2-50.8c8.2-2.4,16.4-5.3,24.5-7.9c0.7,2,1.4,4,2.1,6
		c0,1,0,2,0,3c-6.8,1.7-13.7,3-20.3,5.1c-29.1,9.1-58,18.4-87.1,27.5c-19.4,6.1-38.8,12.1-58.3,18.2c-18.2,5.6-36.4,11.2-54.6,16.8
		c-1.1,0.3-2.3,0.4-3.4,0.3c-11.1-0.9-22.3-1.9-33.4-2.9c-4.1-0.4-8.2-0.8-12.3-1c-9.7-0.7-19.4-1.2-29.1-2
		c-14.7-1.2-29.5-2.7-44.2-4c-11.3-1-22.6-2-33.9-3c-11.5-1-22.9-2-34.4-3c-10.8-1-21.6-2-32.4-3c-15.2-1.4-30.5-2.7-45.7-4
		c-11.1-1-22.3-1.9-33.4-3c-12.4-1.2-24.8-2.8-37.2-3.9c-9.5-0.9-19.1-1.3-28.6-2.1c-9-0.8-17.9-2-26.9-2.9
		c-5.2-0.5-10.5-0.6-15.8-1.1c-5.3-0.5-10.6-0.4-15.8-2.6c-3.3-1.4-7.5-0.9-11.3-1.4c-14.4-1.7-28.9-3.5-43.3-5.2
		c-1.3-0.2-2.7,0.1-4,0c-3.4-0.2-6.5-0.9-9.1-3.7c-8.5-9.1-17.3-17.9-25.9-27c-12-12.6-23.9-25.3-35.9-37.9
		c-12.7-13.4-25.4-26.7-38-40c-12.4-13.1-24.9-26.2-37.3-39.3c-12.6-13.2-25.2-26.4-37.6-39.7C698.6,554,695.9,550.1,693,546.4z"/>
	<path class="st3" d="M1588.9,713.4c-8.2,2.6-16.3,5.5-24.5,7.9c-57.7,17-115.4,33.9-173.2,50.8c-5.8,1.7-11.5,4.2-17.4,4.9
		c-7.1,0.8-14.4,0.5-21.5,0c-7.5-0.5-15-1.7-22.6-2.7c-10.1-1.2-20.3-2.6-30.4-3.8c-6.9-0.8-13.8-1.5-20.7-2.2
		c-10.3-1.2-20.6-2.5-30.9-3.7c-6.7-0.8-13.4-1.5-20.2-2.3c-10.6-1.3-21.3-2.6-31.9-3.8c-6.7-0.8-13.5-1.4-20.2-2.2
		c-10.5-1.2-20.9-2.5-31.4-3.8c-6.6-0.8-13.1-1.5-19.7-2.2c-8.4-0.9-16.7-2-25.1-2.8c-8.9-0.9-17.8-1.4-26.7-2.2
		c-9.7-0.9-19.4-1.9-29.1-2.8c-4.4-0.4-8.9-0.8-13.4-1.2c-14.5-1.3-29-2.7-43.5-3.9c-9.4-0.8-18.8-1.3-28.2-2.1
		c-13.8-1.2-27.6-2.2-41.4-4c-5.5-0.7-10.7-3.2-16.1-4.9c-1.7-3.2-3.3-6.3-5-9.5c-1.5-2.8-3-5.5-4.3-8.3c-0.2-0.5,0.9-1.5,1.3-2.2
		c9.6,1.3,19.2,2.7,28.8,4c8.6,1.2,17.2,2.5,25.8,3.7c8.3,1.1,16.6,2.2,24.9,3.3c8.9,1.2,17.9,2.5,26.8,3.7
		c8.3,1.1,16.6,2.1,24.9,3.3c8.9,1.2,17.9,2.5,26.8,3.7c8.3,1.1,16.6,2.1,24.9,3.3c8.9,1.2,17.9,2.6,26.8,3.8
		c8.3,1.1,16.6,2.1,24.9,3.2c8.9,1.2,17.9,2.6,26.8,3.7c7.2,0.9,14.4,1.5,21.6,2.3c7.9,0.9,15.7,1.9,23.5,2.8
		c7,0.8,14.1,1.4,21.2,2.2c8.2,0.9,16.3,1.9,24.5,2.8c6.9,0.8,13.8,1.4,20.7,2.2c8.3,0.9,16.7,2,25,2.9c7.4,0.8,14.8,1.3,22.2,2.1
		c7.5,0.8,15,1.8,22.5,2.6c6.9,0.8,13.8,2.5,20.6,2.1c6-0.4,11.9-3,17.8-4.9c68.9-21.7,137.9-43.5,206.8-65.2
		c1.1-0.3,2.2-0.6,3.6-0.9C1586.1,700,1587.5,706.7,1588.9,713.4z"/>
	<path class="st2" d="M677.8,357.5c0.6,0.1,1.2,0.1,1.8,0.2c0,0.1,0,0.1,0,0.2C679,357.8,678.4,357.6,677.8,357.5L677.8,357.5z"/>
	<path class="st1" d="M678,355.4c-0.4-0.7-0.8-1.3-1.2-2C677.2,354.1,677.6,354.7,678,355.4z"/>
</g>
</svg>
